<svg version="1.1" id="Layer_1" xmlns="http://www.w3.org/2000/svg" xmlns:xlink="http://www.w3.org/1999/xlink" x="0px" y="0px"
	 width="100%" viewBox="0 0 583 250" enable-background="new 0 0 583 250" xml:space="preserve">
<path fill="#FDFDFD" opacity="1.000000" stroke="none" 
	d="
M435.000000,251.000000 
	C290.000031,251.000000 145.500031,251.000000 1.000039,251.000000 
	C1.000026,167.666687 1.000026,84.333389 1.000013,1.000061 
	C195.333298,1.000041 389.666595,1.000041 583.999878,1.000020 
	C583.999939,84.333275 583.999939,167.666550 584.000000,250.999908 
	C534.500000,251.000000 485.000000,251.000000 435.000000,251.000000 
M134.071594,89.185204 
	C140.615784,87.568138 147.030197,87.814156 154.882355,90.590401 
	C150.024567,95.168961 146.305527,99.439735 141.837997,102.677795 
	C137.003876,106.181564 131.202255,109.609459 125.276215,105.712547 
	C119.513596,101.923111 120.401115,95.388840 121.599213,89.701187 
	C127.550964,61.446835 143.006927,39.619377 167.187057,23.993851 
	C170.268814,22.002371 173.967804,20.966002 177.380859,19.487160 
	C176.371323,22.801588 174.776199,25.118067 173.242233,27.474360 
	C167.986908,35.546951 162.415710,43.439522 157.620804,51.777885 
	C153.971603,58.123901 155.351669,61.914570 161.246887,66.320908 
	C164.900055,69.051445 168.473511,71.888634 172.277924,74.828781 
	C171.678818,63.861668 176.352127,54.407383 181.480606,45.092716 
	C184.763687,39.129768 188.081772,33.183975 191.234543,27.152288 
	C192.858597,24.045233 193.361908,20.826092 190.637207,17.902924 
	C185.076996,11.937691 178.493179,8.183474 170.208786,10.659665 
	C164.233444,12.445681 158.005692,14.458975 152.891327,17.871042 
	C128.723999,33.994339 112.597458,56.275253 105.175400,84.385628 
	C103.484505,90.789749 102.865311,98.124077 104.167160,104.540413 
	C107.150826,119.245911 114.955887,122.900894 127.840294,120.404747 
	C135.311066,118.957390 141.065414,114.445068 146.872086,109.869766 
	C146.872086,109.869766 147.161179,110.158745 147.084579,110.852501 
	C145.185745,113.775002 143.529449,116.894562 141.344101,119.584290 
	C133.795593,128.874985 126.018280,137.927490 111.823448,133.992416 
	C113.736725,137.742752 115.558846,141.068954 117.158028,144.499100 
	C120.718849,152.136810 125.547195,154.156708 132.569611,149.501999 
	C137.458679,146.261322 142.391708,142.150620 145.445663,137.266006 
	C152.549942,125.903191 158.592316,113.870789 164.920853,102.032669 
	C166.475616,99.124298 167.043243,95.637154 168.821960,92.910011 
	C172.746155,86.893410 177.152512,81.191315 181.805374,74.990852 
	C181.757797,74.714622 181.710220,74.438393 181.662643,74.162170 
	C181.384689,74.383926 181.106735,74.605682 180.092270,74.928627 
	C171.538513,79.865326 162.608109,78.518562 153.658554,76.463066 
	C142.256454,73.844284 140.262909,74.732689 134.914276,85.077026 
	C134.247223,86.367119 133.624924,87.680344 132.410263,89.021339 
	C132.379456,89.253769 132.348648,89.486206 132.317841,89.718628 
	C132.626862,89.548874 132.935883,89.379120 134.071594,89.185204 
M325.598938,212.021454 
	C325.224243,212.043350 324.849548,212.065262 324.102264,211.299866 
	C324.593201,208.390900 324.598206,205.286591 325.673248,202.612427 
	C328.143982,196.466370 331.105682,190.515671 333.923584,184.511703 
	C337.384918,177.136902 336.332764,173.760544 329.048645,170.099548 
	C327.001373,169.070587 324.730011,168.296555 322.474823,167.906433 
	C314.205444,166.475906 308.832031,171.678543 304.274658,177.129837 
	C296.602112,186.307297 289.465668,195.949966 282.406250,205.617889 
	C276.164215,214.166397 270.334595,223.016083 264.322876,231.732803 
	C264.217407,229.109833 264.557526,226.648788 265.447601,224.406006 
	C271.385315,209.444107 277.319855,194.478729 283.491547,179.612534 
	C289.599182,164.900543 295.938416,150.283813 302.279327,135.670120 
	C303.959686,131.797516 303.013641,129.426529 299.135651,127.774979 
	C296.109009,126.486000 293.279175,124.734863 290.106049,123.053528 
	C280.012604,162.427078 257.390320,194.688049 232.494766,225.663879 
	C233.577057,220.924606 234.871002,216.332596 236.613724,211.917725 
	C240.693054,201.583344 244.898865,191.296249 249.238724,181.068634 
	C250.967377,176.994751 250.011032,174.470428 245.981354,172.719543 
	C242.965469,171.409134 240.113724,169.721024 237.149536,168.180618 
	C234.830978,186.401794 222.945801,197.908981 209.066345,207.926285 
	C207.904068,208.765121 205.912491,208.454895 204.385223,208.717041 
	C204.385223,208.717041 204.298859,208.701859 204.981949,208.472031 
	C212.920120,196.904160 220.499908,185.056763 222.395020,170.831467 
	C223.191559,164.852417 223.927109,157.927338 221.723877,152.677216 
	C216.776947,140.889099 194.372696,136.889633 186.627167,142.601639 
	C188.124893,143.645157 189.659561,144.625854 191.098663,145.730972 
	C203.325424,155.120163 206.862122,166.269104 202.217987,180.955032 
	C199.390503,189.896271 195.573196,198.289978 189.014343,205.252960 
	C187.632690,206.719711 185.897186,209.118774 186.216965,210.707367 
	C187.747147,218.309341 181.225861,221.438416 178.413589,226.629807 
	C179.340042,220.778275 180.866165,215.191147 182.571091,209.659119 
	C185.505051,200.139221 188.529022,190.646805 191.559204,181.156906 
	C192.819809,177.208954 192.191025,174.588715 187.639526,173.267532 
	C183.428802,172.045288 179.451614,170.018494 175.739563,168.496857 
	C174.715988,174.115524 175.457901,181.300552 172.266693,185.488724 
	C161.925262,199.060989 150.228226,211.611984 138.821991,224.349167 
	C137.035172,226.344498 134.179993,227.616791 131.583618,228.606415 
	C125.555351,230.904160 121.535843,228.426498 121.290199,222.063797 
	C121.146820,218.349945 122.059120,214.595322 122.633110,209.691650 
	C129.301285,212.380371 135.021164,214.686707 141.047638,217.116669 
	C147.604752,206.217651 153.300140,194.844101 156.751068,182.442703 
	C157.955811,178.113266 156.570206,174.703629 152.942307,171.978561 
	C144.920776,165.953308 138.203873,165.975449 129.968948,173.013062 
	C118.140312,183.121841 110.269997,195.972504 106.230042,210.911652 
	C102.707863,223.936142 106.343498,231.603241 117.390907,236.858292 
	C124.590752,240.283127 131.340454,238.460678 137.007843,233.918854 
	C143.332993,228.849899 149.176239,223.086136 154.691620,217.127182 
	C159.935440,211.461578 164.485321,205.153671 170.315216,197.918289 
	C169.928345,201.150299 169.825943,202.892517 169.498383,204.591309 
	C167.956436,212.587997 166.505188,220.607239 164.709579,228.547882 
	C163.747696,232.801605 163.517960,236.403366 168.061630,238.766479 
	C174.052139,241.882019 178.820282,241.837952 182.587448,237.707428 
	C187.063721,232.799423 191.057098,227.453888 195.372025,222.393707 
	C196.378311,221.213623 197.763855,219.703110 199.100449,219.565659 
	C207.164047,218.736588 212.731277,213.877960 218.105270,208.536240 
	C219.468719,207.180969 221.047989,206.042801 223.251938,204.199493 
	C220.385544,212.989487 217.898788,220.517715 215.482559,228.068512 
	C214.373413,231.534637 215.737701,233.870346 219.037750,235.201645 
	C223.479523,236.993561 227.915314,238.800247 232.175827,240.528473 
	C239.085541,229.904282 245.946289,219.355408 253.105881,209.104721 
	C253.105881,209.104721 253.407333,209.400284 253.247803,210.118210 
	C251.288010,215.757980 249.238266,221.368591 247.397690,227.047012 
	C245.998505,231.363754 247.365509,234.582916 251.807251,236.130630 
	C256.769257,237.859619 261.760864,239.503769 266.492767,241.101486 
	C275.328491,227.262253 283.808258,213.980499 292.875946,199.777939 
	C295.746826,211.599869 301.921997,220.194717 309.528778,228.394379 
	C304.971527,227.465851 300.072906,226.620621 297.002228,223.791428 
	C293.951508,220.980606 292.739166,216.174469 290.880768,212.555176 
	C288.989899,215.459625 286.581146,219.011688 284.324036,222.657639 
	C279.766144,230.020050 281.635406,235.597824 289.683807,238.920242 
	C300.694702,243.465637 312.235077,240.033752 321.401184,230.875259 
	C333.278015,219.008316 345.342957,207.240234 358.186127,196.452530 
	C374.145294,183.047516 392.258636,173.270111 413.110291,169.543320 
	C417.849548,168.696243 422.760925,167.953217 427.012756,171.273880 
	C421.418640,173.583740 415.910400,175.477539 410.759735,178.079269 
	C404.023163,181.482056 399.016663,186.715210 396.610168,194.091293 
	C392.802216,205.762878 399.446777,215.059708 411.648560,214.986954 
	C420.141296,214.936325 427.089294,211.315353 432.658417,205.085083 
	C439.906982,196.975922 441.955353,187.478363 439.106476,176.631119 
	C467.183838,172.653900 493.608856,175.222580 518.320374,188.519104 
	C518.352966,189.188248 518.385620,189.857391 518.418213,190.526535 
	C508.933289,192.822998 499.448364,195.119461 490.236481,197.349808 
	C497.403717,204.242035 531.591614,217.653702 547.579468,219.645996 
	C544.801086,200.347870 527.332581,161.377090 516.327087,158.340744 
	C517.563599,166.473038 518.803528,174.628204 520.113403,183.242874 
	C493.564240,170.123779 466.423126,165.814926 437.929565,169.701859 
	C436.457123,169.902740 434.462006,169.638580 433.375092,168.764343 
	C424.945801,161.984268 415.369690,161.611847 405.433441,163.579010 
	C386.977325,167.232925 370.543671,175.489792 355.808258,186.912033 
	C345.575165,194.844254 336.019989,203.651062 325.598938,212.021454 
M357.108856,90.096985 
	C357.247375,90.220459 357.385864,90.343933 357.356415,91.179054 
	C355.170105,97.944672 352.933350,104.694588 350.820007,111.482933 
	C349.852661,114.590240 351.326965,116.624641 354.179565,117.749367 
	C358.415619,119.419540 362.678284,121.022194 366.987427,122.675774 
	C365.483337,97.219162 380.175842,80.269241 396.556702,64.136436 
	C396.398712,66.515968 395.498474,68.557503 394.569855,70.586037 
	C391.326355,77.671310 387.834137,84.654800 384.897766,91.864861 
	C382.473450,97.817696 383.349365,99.672920 388.618866,103.077591 
	C397.628784,108.898987 399.386200,108.628983 405.897949,100.390572 
	C408.967560,96.507019 412.021637,92.611183 415.914154,87.664322 
	C415.067535,94.124313 414.173889,98.842033 413.894836,103.595833 
	C413.533356,109.753891 415.010773,115.538139 421.351868,118.036339 
	C428.667694,120.918556 436.313019,123.533974 442.825806,116.035973 
	C444.352234,114.278618 445.819183,112.454079 447.481934,110.833214 
	C455.976837,102.552109 464.525024,94.325623 473.081055,86.107605 
	C473.179779,86.012817 473.629883,86.283897 474.226471,86.493042 
	C473.892517,87.374916 473.542358,88.243515 473.232697,89.126320 
	C470.871765,95.857178 468.227570,102.506668 466.250732,109.348831 
	C464.509888,115.374184 465.859863,117.323975 471.766296,119.461044 
	C474.262329,120.364151 476.998779,120.863174 479.212341,122.220467 
	C481.980621,123.917915 483.549042,122.866997 484.974915,120.728203 
	C488.278015,115.773537 491.503021,110.766823 495.206360,106.152008 
	C495.364868,106.263039 495.523346,106.374062 495.510773,107.270378 
	C493.819214,111.046783 495.280334,113.799591 498.612854,115.533470 
	C502.273163,117.437881 506.025269,119.312889 509.951691,120.479210 
	C511.326569,120.887619 514.072754,119.637398 514.938904,118.320122 
	C520.505310,109.854210 525.690186,101.138481 531.073181,92.550423 
	C533.103455,89.311333 535.327332,86.193626 537.313171,83.243065 
	C539.752625,88.346130 541.614868,93.368484 544.418579,97.794441 
	C547.301453,102.345306 551.103088,106.314148 554.502686,110.537674 
	C554.345947,110.972664 554.189209,111.407646 554.032532,111.842636 
	C549.943298,110.155991 545.045837,109.347450 541.991638,106.536285 
	C538.924377,103.713036 537.693420,98.894676 535.751282,95.131805 
	C533.689697,98.367920 531.109253,102.194893 528.759583,106.158623 
	C525.097351,112.336517 526.405579,117.520042 532.846252,120.640862 
	C542.029968,125.090828 551.237915,124.653664 559.918152,119.162735 
	C564.979126,115.961266 565.673157,112.109589 562.713135,106.759827 
	C560.304810,102.407120 557.497437,98.220505 555.583984,93.659439 
	C550.681885,81.974579 557.503906,64.788345 569.741394,58.979557 
	C566.547424,64.657623 563.578979,69.562935 560.972046,74.653404 
	C556.714417,82.966965 556.965759,83.803093 563.708496,89.896248 
	C565.383301,91.409782 566.993225,92.995232 567.949097,93.900131 
	C569.679565,88.874359 571.271423,83.557564 573.342041,78.434311 
	C575.389404,73.368523 577.934937,68.504959 580.233887,63.539673 
	C581.707764,60.356365 580.741211,57.883095 578.224182,55.562466 
	C571.188843,49.076035 562.731384,48.393749 555.150452,54.208042 
	C552.270752,56.416668 549.436462,58.909286 547.277283,61.793365 
	C538.308899,73.772659 529.606201,85.950821 520.805847,98.055908 
	C519.778320,99.469315 518.750244,100.882301 517.722412,102.295486 
	C517.138306,100.799622 517.255127,99.691727 517.616882,98.670616 
	C521.771179,86.945251 525.954712,75.230179 530.147827,63.518604 
	C532.110840,58.035900 531.583679,56.708515 526.192383,54.401932 
	C522.993652,53.033375 519.735046,51.804600 516.503906,50.511600 
	C506.389557,76.592278 489.580750,105.052376 482.595703,106.857384 
	C488.962067,92.190689 495.174591,77.972290 501.300781,63.716801 
	C503.609131,58.345406 502.986267,56.858456 497.655365,54.542183 
	C494.336304,53.100029 490.936249,51.844296 487.572205,50.504765 
	C484.186371,68.800842 471.630829,80.425423 459.037750,92.049431 
	C459.037750,92.049431 459.075470,92.107491 458.532501,91.462784 
	C461.051849,81.202766 463.633026,70.957031 466.011932,60.664551 
	C466.307709,59.384766 465.938690,57.571976 465.184021,56.490063 
	C460.127747,49.241405 450.196259,48.645992 444.209076,54.981010 
	C443.324554,55.916901 441.537354,57.200211 440.794708,56.877983 
	C435.309418,54.497902 433.032532,58.329552 430.277130,61.708256 
	C420.317261,73.921112 410.265869,86.059334 399.862122,97.880150 
	C399.730682,97.767738 399.599274,97.655327 399.547882,96.775528 
	C400.271240,94.392891 400.790192,91.923851 401.754395,89.643021 
	C405.373474,81.081886 409.092468,72.561974 412.870880,64.069717 
	C414.318481,60.816166 414.100952,58.285370 411.343597,55.606239 
	C404.128510,48.595730 400.385468,48.487343 393.518646,55.920296 
	C390.465210,59.225487 387.641113,62.742546 383.987762,67.010605 
	C386.128540,57.803249 386.122223,57.815788 378.549347,54.001560 
	C376.507935,52.973377 374.517609,51.843880 373.195892,51.133080 
	C371.158356,56.344116 370.119568,62.207684 366.948975,66.494484 
	C358.252747,78.252090 349.023926,89.673553 339.249847,100.548523 
	C335.169891,105.088005 329.489624,108.528069 323.958099,111.321861 
	C319.127716,113.761513 315.287262,111.130325 314.919830,105.704514 
	C314.638336,101.547668 315.456573,97.316360 315.855560,92.226952 
	C322.667450,94.991844 328.427490,97.329788 335.369751,100.147591 
	C340.147278,88.915527 345.136688,77.740509 349.560486,66.345894 
	C350.517181,63.881641 350.357269,60.138283 349.126404,57.829067 
	C345.452545,50.936485 334.661652,47.988956 328.211029,52.349491 
	C323.191681,55.742512 318.270172,59.859604 314.681458,64.679604 
	C304.456940,78.412262 294.945251,92.675240 285.121796,106.707642 
	C284.216003,108.001541 283.087036,109.139221 282.061707,110.349434 
	C281.656647,110.069649 281.251556,109.789864 280.846466,109.510078 
	C286.627167,95.115486 292.509460,80.760513 298.145813,66.309608 
	C300.972839,59.061470 300.136230,57.408451 292.710938,52.728378 
	C286.857483,49.039024 285.482880,48.766529 280.547913,54.797722 
	C272.349121,64.817627 264.880890,75.434669 257.076447,85.778679 
	C256.133118,87.028954 255.013123,88.145920 253.975006,89.324661 
	C256.346161,81.566994 259.432251,74.474983 262.433716,67.347321 
	C266.259003,58.263287 266.220459,58.268780 257.554138,53.904987 
	C255.521667,52.881580 253.572861,51.692059 252.688110,51.196507 
	C250.159958,57.356419 248.642090,64.035194 245.016953,69.248734 
	C238.100433,79.195808 230.456268,88.750023 222.188385,97.602676 
	C217.090027,103.061623 210.650711,107.575630 204.115143,111.282791 
	C199.314713,114.005730 195.096146,110.838943 194.959335,105.287285 
	C194.860458,101.275398 195.596207,97.242950 196.048386,92.238411 
	C202.904022,95.025574 208.656586,97.364273 215.747910,100.247261 
	C220.585037,88.267792 225.463165,76.350159 230.194199,64.374413 
	C231.690369,60.587120 229.963440,57.663616 227.076614,55.168098 
	C219.817413,48.892879 212.976212,48.252754 205.377213,54.174290 
	C191.775009,64.773834 183.191101,78.884125 179.289886,95.534332 
	C176.469910,107.569824 180.280884,114.464706 190.986420,119.501755 
	C198.167786,122.880630 205.062057,121.158745 210.550537,116.430672 
	C218.203354,109.838127 225.023315,102.277428 232.177399,95.108780 
	C233.244308,94.039688 234.189301,92.848930 235.190704,91.714462 
	C234.032379,98.043869 232.051010,103.791298 230.323502,109.614052 
	C229.126785,113.647720 230.154327,116.725227 234.585632,118.245209 
	C238.738724,119.669769 242.771393,121.445457 246.842972,123.061035 
	C254.651352,105.006149 275.525635,72.268791 281.793610,69.030296 
	C280.846863,71.276367 280.222778,72.907486 279.483795,74.484787 
	C275.679291,82.605186 271.647217,90.625435 268.065308,98.842232 
	C261.777893,113.265266 263.768829,116.902924 279.073761,120.594711 
	C282.148468,121.336372 283.823120,120.687416 285.420532,117.835464 
	C289.022675,111.404366 293.063232,105.218803 296.925385,98.933334 
	C297.909485,99.839668 298.005951,100.418114 297.983887,100.991997 
	C297.405457,116.040863 315.508392,126.438553 328.139130,117.995888 
	C331.309967,115.876442 334.615997,113.767326 337.234070,111.050415 
	C343.914337,104.117958 350.241516,96.845268 357.108856,90.096985 
M57.894337,228.485001 
	C53.841652,230.360367 49.788971,232.235718 45.736286,234.111084 
	C45.250225,233.651138 44.764164,233.191177 44.278099,232.731232 
	C45.073399,228.219025 45.106476,223.395432 46.799847,219.250076 
	C53.131912,203.749146 59.839302,188.394363 66.727020,173.129654 
	C73.491821,158.137360 73.426300,157.529449 58.732437,150.176224 
	C58.599159,150.109528 58.403294,150.167923 58.672997,150.167923 
	C57.503693,154.232727 56.818066,158.373703 55.154793,162.075378 
	C49.715687,174.180206 43.827469,186.082367 38.296806,198.147202 
	C34.913124,205.528503 31.629675,212.976639 28.809240,220.583130 
	C27.905138,223.021439 27.612225,226.657410 28.812880,228.706390 
	C31.451002,233.208450 35.017700,237.238907 38.626549,241.064529 
	C40.104984,242.631790 42.576149,243.527817 44.760822,244.118057 
	C54.640751,246.787369 63.290672,243.423340 70.844193,237.487152 
	C90.686951,221.893051 101.341904,200.663574 107.119858,176.604034 
	C110.944756,160.677124 108.867470,146.456223 94.802467,136.070450 
	C91.002594,133.264572 86.844398,130.325180 82.398064,129.127823 
	C68.201073,125.304695 54.303875,127.840698 40.951523,133.264984 
	C29.498980,137.917496 19.322239,144.531662 12.947762,155.554703 
	C8.998297,162.384308 6.676262,169.644073 11.485395,177.174500 
	C15.899044,184.085693 20.407099,190.936584 24.878328,197.821381 
	C24.916140,197.451920 25.064262,196.987122 24.993172,196.558701 
	C20.761168,171.055115 41.742893,147.862595 65.121994,142.336456 
	C82.497772,138.229355 93.246246,146.279556 91.944809,163.980759 
	C90.041794,189.864059 78.123322,211.126572 57.894337,228.485001 
M246.311111,165.049820 
	C247.343826,165.868164 248.376556,166.686493 249.287674,167.408478 
	C250.532547,165.258728 251.634308,163.093002 252.980927,161.092087 
	C255.017212,158.066391 257.366241,155.246231 259.326141,152.175232 
	C262.495636,147.209015 261.959808,145.478287 256.837250,142.803711 
	C253.799240,141.217499 250.757431,139.638489 248.203308,138.309174 
	C246.505600,144.169128 244.897430,149.837784 243.215195,155.484375 
	C242.139801,159.094055 242.003525,162.384659 246.311111,165.049820 
z"/>
<path fill="#050505" opacity="1.000000" stroke="none" 
	d="
M494.759705,105.781204 
	C491.503021,110.766823 488.278015,115.773537 484.974915,120.728203 
	C483.549042,122.866997 481.980621,123.917915 479.212341,122.220467 
	C476.998779,120.863174 474.262329,120.364151 471.766296,119.461044 
	C465.859863,117.323975 464.509888,115.374184 466.250732,109.348831 
	C468.227570,102.506668 470.871765,95.857178 473.232697,89.126320 
	C473.542358,88.243515 473.892517,87.374916 474.226471,86.493042 
	C473.629883,86.283897 473.179779,86.012817 473.081055,86.107605 
	C464.525024,94.325623 455.976837,102.552109 447.481934,110.833214 
	C445.819183,112.454079 444.352234,114.278618 442.825806,116.035973 
	C436.313019,123.533974 428.667694,120.918556 421.351868,118.036339 
	C415.010773,115.538139 413.533356,109.753891 413.894836,103.595833 
	C414.173889,98.842033 415.067535,94.124313 415.914154,87.664322 
	C412.021637,92.611183 408.967560,96.507019 405.897949,100.390572 
	C399.386200,108.628983 397.628784,108.898987 388.618866,103.077591 
	C383.349365,99.672920 382.473450,97.817696 384.897766,91.864861 
	C387.834137,84.654800 391.326355,77.671310 394.569855,70.586037 
	C395.498474,68.557503 396.398712,66.515968 396.556702,64.136436 
	C380.175842,80.269241 365.483337,97.219162 366.987427,122.675774 
	C362.678284,121.022194 358.415619,119.419540 354.179565,117.749367 
	C351.326965,116.624641 349.852661,114.590240 350.820007,111.482933 
	C352.933350,104.694588 355.170105,97.944672 357.619904,90.601700 
	C357.832642,89.760742 357.781891,89.497131 357.731171,89.233521 
	C357.390778,89.391922 357.050354,89.550316 356.709961,89.708702 
	C350.241516,96.845268 343.914337,104.117958 337.234070,111.050415 
	C334.615997,113.767326 331.309967,115.876442 328.139130,117.995888 
	C315.508392,126.438553 297.405457,116.040863 297.983887,100.991997 
	C298.005951,100.418114 297.909485,99.839668 296.925385,98.933334 
	C293.063232,105.218803 289.022675,111.404366 285.420532,117.835464 
	C283.823120,120.687416 282.148468,121.336372 279.073761,120.594711 
	C263.768829,116.902924 261.777893,113.265266 268.065308,98.842232 
	C271.647217,90.625435 275.679291,82.605186 279.483795,74.484787 
	C280.222778,72.907486 280.846863,71.276367 281.793610,69.030296 
	C275.525635,72.268791 254.651352,105.006149 246.842972,123.061035 
	C242.771393,121.445457 238.738724,119.669769 234.585632,118.245209 
	C230.154327,116.725227 229.126785,113.647720 230.323502,109.614052 
	C232.051010,103.791298 234.032379,98.043869 235.190704,91.714462 
	C234.189301,92.848930 233.244308,94.039688 232.177399,95.108780 
	C225.023315,102.277428 218.203354,109.838127 210.550537,116.430672 
	C205.062057,121.158745 198.167786,122.880630 190.986420,119.501755 
	C180.280884,114.464706 176.469910,107.569824 179.289886,95.534332 
	C183.191101,78.884125 191.775009,64.773834 205.377213,54.174290 
	C212.976212,48.252754 219.817413,48.892879 227.076614,55.168098 
	C229.963440,57.663616 231.690369,60.587120 230.194199,64.374413 
	C225.463165,76.350159 220.585037,88.267792 215.747910,100.247261 
	C208.656586,97.364273 202.904022,95.025574 196.048386,92.238411 
	C195.596207,97.242950 194.860458,101.275398 194.959335,105.287285 
	C195.096146,110.838943 199.314713,114.005730 204.115143,111.282791 
	C210.650711,107.575630 217.090027,103.061623 222.188385,97.602676 
	C230.456268,88.750023 238.100433,79.195808 245.016953,69.248734 
	C248.642090,64.035194 250.159958,57.356419 252.688110,51.196507 
	C253.572861,51.692059 255.521667,52.881580 257.554138,53.904987 
	C266.220459,58.268780 266.259003,58.263287 262.433716,67.347321 
	C259.432251,74.474983 256.346161,81.566994 253.975006,89.324661 
	C255.013123,88.145920 256.133118,87.028954 257.076447,85.778679 
	C264.880890,75.434669 272.349121,64.817627 280.547913,54.797722 
	C285.482880,48.766529 286.857483,49.039024 292.710938,52.728378 
	C300.136230,57.408451 300.972839,59.061470 298.145813,66.309608 
	C292.509460,80.760513 286.627167,95.115486 280.846466,109.510078 
	C281.251556,109.789864 281.656647,110.069649 282.061707,110.349434 
	C283.087036,109.139221 284.216003,108.001541 285.121796,106.707642 
	C294.945251,92.675240 304.456940,78.412262 314.681458,64.679604 
	C318.270172,59.859604 323.191681,55.742512 328.211029,52.349491 
	C334.661652,47.988956 345.452545,50.936485 349.126404,57.829067 
	C350.357269,60.138283 350.517181,63.881641 349.560486,66.345894 
	C345.136688,77.740509 340.147278,88.915527 335.369751,100.147591 
	C328.427490,97.329788 322.667450,94.991844 315.855560,92.226952 
	C315.456573,97.316360 314.638336,101.547668 314.919830,105.704514 
	C315.287262,111.130325 319.127716,113.761513 323.958099,111.321861 
	C329.489624,108.528069 335.169891,105.088005 339.249847,100.548523 
	C349.023926,89.673553 358.252747,78.252090 366.948975,66.494484 
	C370.119568,62.207684 371.158356,56.344116 373.195892,51.133080 
	C374.517609,51.843880 376.507935,52.973377 378.549347,54.001560 
	C386.122223,57.815788 386.128540,57.803249 383.987762,67.010605 
	C387.641113,62.742546 390.465210,59.225487 393.518646,55.920296 
	C400.385468,48.487343 404.128510,48.595730 411.343597,55.606239 
	C414.100952,58.285370 414.318481,60.816166 412.870880,64.069717 
	C409.092468,72.561974 405.373474,81.081886 401.754395,89.643021 
	C400.790192,91.923851 400.271240,94.392891 399.375702,97.384506 
	C399.340912,98.440445 399.478302,98.887398 399.615723,99.334351 
	C399.826843,98.964821 400.037964,98.595284 400.249084,98.225739 
	C410.265869,86.059334 420.317261,73.921112 430.277130,61.708256 
	C433.032532,58.329552 435.309418,54.497902 440.794708,56.877983 
	C441.537354,57.200211 443.324554,55.916901 444.209076,54.981010 
	C450.196259,48.645992 460.127747,49.241405 465.184021,56.490063 
	C465.938690,57.571976 466.307709,59.384766 466.011932,60.664551 
	C463.633026,70.957031 461.051849,81.202766 458.538330,91.614136 
	C458.550293,92.091499 458.556427,92.417511 458.562561,92.743530 
	C458.706787,92.493935 458.851044,92.244339 458.995270,91.994743 
	C471.630829,80.425423 484.186371,68.800842 487.572205,50.504765 
	C490.936249,51.844296 494.336304,53.100029 497.655365,54.542183 
	C502.986267,56.858456 503.609131,58.345406 501.300781,63.716801 
	C495.174591,77.972290 488.962067,92.190689 482.595703,106.857384 
	C489.580750,105.052376 506.389557,76.592278 516.503662,50.512283 
	C519.735046,51.804600 522.993652,53.033375 526.192383,54.401932 
	C531.583679,56.708515 532.110840,58.035900 530.147827,63.518604 
	C525.954712,75.230179 521.771179,86.945251 517.616882,98.670616 
	C517.255127,99.691727 517.138306,100.799622 517.722412,102.295486 
	C518.750244,100.882301 519.778320,99.469315 520.805847,98.055908 
	C529.606201,85.950821 538.308899,73.772659 547.277283,61.793365 
	C549.436462,58.909286 552.270752,56.416668 555.150452,54.208042 
	C562.731384,48.393749 571.188843,49.076035 578.224182,55.562466 
	C580.741211,57.883095 581.707764,60.356365 580.233887,63.539673 
	C577.934937,68.504959 575.389404,73.368523 573.342041,78.434311 
	C571.271423,83.557564 569.679565,88.874359 567.949097,93.900131 
	C566.993225,92.995232 565.383301,91.409782 563.708496,89.896248 
	C556.965759,83.803093 556.714417,82.966965 560.972046,74.653404 
	C563.578979,69.562935 566.547424,64.657623 569.741394,58.979557 
	C557.503906,64.788345 550.681885,81.974579 555.583984,93.659439 
	C557.497437,98.220505 560.304810,102.407120 562.713135,106.759827 
	C565.673157,112.109589 564.979126,115.961266 559.918152,119.162735 
	C551.237915,124.653664 542.029968,125.090828 532.846252,120.640862 
	C526.405579,117.520042 525.097351,112.336517 528.759583,106.158623 
	C531.109253,102.194893 533.689697,98.367920 535.751282,95.131805 
	C537.693420,98.894676 538.924377,103.713036 541.991638,106.536285 
	C545.045837,109.347450 549.943298,110.155991 554.032532,111.842636 
	C554.189209,111.407646 554.345947,110.972664 554.502686,110.537674 
	C551.103088,106.314148 547.301453,102.345306 544.418579,97.794441 
	C541.614868,93.368484 539.752625,88.346130 537.313171,83.243065 
	C535.327332,86.193626 533.103455,89.311333 531.073181,92.550423 
	C525.690186,101.138481 520.505310,109.854210 514.938904,118.320122 
	C514.072754,119.637398 511.326569,120.887619 509.951691,120.479210 
	C506.025269,119.312889 502.273163,117.437881 498.612854,115.533470 
	C495.280334,113.799591 493.819214,111.046783 495.738831,106.586807 
	C495.909332,105.296173 495.851776,104.689102 495.704285,103.133553 
	C495.174744,104.617889 494.967224,105.199547 494.759705,105.781204 
M443.856323,97.805527 
	C449.718292,85.628235 454.462341,73.107414 455.649872,59.462254 
	C446.790466,69.195122 441.598541,80.488464 441.142731,93.701698 
	C441.090881,95.204758 442.476288,96.757385 443.856323,97.805527 
M206.009750,84.475029 
	C207.206665,83.071053 208.804749,81.847069 209.529678,80.231339 
	C212.370285,73.900200 214.935287,67.445412 217.602692,61.036564 
	C217.147354,60.823978 216.692001,60.611397 216.236664,60.398811 
	C208.665985,65.446190 205.147873,73.487030 200.864487,81.128929 
	C202.643234,82.262718 204.035767,83.150314 206.009750,84.475029 
M332.047729,63.546814 
	C328.162537,69.246376 324.277374,74.945938 320.271851,80.822037 
	C322.922791,82.506378 324.817841,83.710449 327.322906,85.302109 
	C330.832550,76.946205 334.224396,68.870758 337.616241,60.795303 
	C337.231201,60.570824 336.846191,60.346348 336.461151,60.121872 
	C335.156921,61.096027 333.852661,62.070183 332.047729,63.546814 
M430.464355,92.975594 
	C429.754395,96.533234 428.551727,100.082413 428.490479,103.651184 
	C428.441528,106.503105 429.781616,109.378868 430.505157,112.244049 
	C432.788422,110.900002 435.089325,109.584259 437.336121,108.181839 
	C437.679291,107.967651 437.772308,107.352692 438.019440,106.844017 
	C431.047211,100.735611 433.539948,92.795776 433.159241,85.064369 
	C432.355103,87.445740 431.550964,89.827110 430.464355,92.975594 
z"/>
<path fill="#060606" opacity="1.000000" stroke="none" 
	d="
M204.306198,208.678528 
	C205.912491,208.454895 207.904068,208.765121 209.066345,207.926285 
	C222.945801,197.908981 234.830978,186.401794 237.149536,168.180618 
	C240.113724,169.721024 242.965469,171.409134 245.981354,172.719543 
	C250.011032,174.470428 250.967377,176.994751 249.238724,181.068634 
	C244.898865,191.296249 240.693054,201.583344 236.613724,211.917725 
	C234.871002,216.332596 233.577057,220.924606 232.494766,225.663879 
	C257.390320,194.688049 280.012604,162.427078 290.106049,123.053528 
	C293.279175,124.734863 296.109009,126.486000 299.135651,127.774979 
	C303.013641,129.426529 303.959686,131.797516 302.279327,135.670120 
	C295.938416,150.283813 289.599182,164.900543 283.491547,179.612534 
	C277.319855,194.478729 271.385315,209.444107 265.447601,224.406006 
	C264.557526,226.648788 264.217407,229.109833 264.322876,231.732803 
	C270.334595,223.016083 276.164215,214.166397 282.406250,205.617889 
	C289.465668,195.949966 296.602112,186.307297 304.274658,177.129837 
	C308.832031,171.678543 314.205444,166.475906 322.474823,167.906433 
	C324.730011,168.296555 327.001373,169.070587 329.048645,170.099548 
	C336.332764,173.760544 337.384918,177.136902 333.923584,184.511703 
	C331.105682,190.515671 328.143982,196.466370 325.673248,202.612427 
	C324.598206,205.286591 324.593201,208.390900 323.918915,211.666946 
	C322.072052,210.419510 320.449249,208.760406 318.737823,207.198364 
	C312.104187,201.143616 311.917603,200.391602 315.894470,192.392609 
	C317.148712,189.869843 318.587494,187.436356 319.997742,184.994278 
	C321.652893,182.127975 323.368958,179.296860 325.717194,175.341064 
	C307.565063,185.980652 304.208527,205.834717 316.931702,221.818237 
	C320.028290,218.546906 323.095093,215.307007 326.161926,212.067108 
	C336.019989,203.651062 345.575165,194.844254 355.808258,186.912033 
	C370.543671,175.489792 386.977325,167.232925 405.433441,163.579010 
	C415.369690,161.611847 424.945801,161.984268 433.375092,168.764343 
	C434.462006,169.638580 436.457123,169.902740 437.929565,169.701859 
	C466.423126,165.814926 493.564240,170.123779 520.113403,183.242874 
	C518.803528,174.628204 517.563599,166.473038 516.327087,158.340744 
	C527.332581,161.377090 544.801086,200.347870 547.579468,219.645996 
	C531.591614,217.653702 497.403717,204.242035 490.236481,197.349808 
	C499.448364,195.119461 508.933289,192.822998 518.418213,190.526535 
	C518.385620,189.857391 518.352966,189.188248 518.320374,188.519104 
	C493.608856,175.222580 467.183838,172.653900 439.106476,176.631119 
	C441.955353,187.478363 439.906982,196.975922 432.658417,205.085083 
	C427.089294,211.315353 420.141296,214.936325 411.648560,214.986954 
	C399.446777,215.059708 392.802216,205.762878 396.610168,194.091293 
	C399.016663,186.715210 404.023163,181.482056 410.759735,178.079269 
	C415.910400,175.477539 421.418640,173.583740 427.012756,171.273880 
	C422.760925,167.953217 417.849548,168.696243 413.110291,169.543320 
	C392.258636,173.270111 374.145294,183.047516 358.186127,196.452530 
	C345.342957,207.240234 333.278015,219.008316 321.401184,230.875259 
	C312.235077,240.033752 300.694702,243.465637 289.683807,238.920242 
	C281.635406,235.597824 279.766144,230.020050 284.324036,222.657639 
	C286.581146,219.011688 288.989899,215.459625 290.880768,212.555176 
	C292.739166,216.174469 293.951508,220.980606 297.002228,223.791428 
	C300.072906,226.620621 304.971527,227.465851 309.528778,228.394379 
	C301.921997,220.194717 295.746826,211.599869 292.875946,199.777939 
	C283.808258,213.980499 275.328491,227.262253 266.492767,241.101486 
	C261.760864,239.503769 256.769257,237.859619 251.807251,236.130630 
	C247.365509,234.582916 245.998505,231.363754 247.397690,227.047012 
	C249.238266,221.368591 251.288010,215.757980 253.532272,209.563599 
	C253.769028,208.741455 253.721313,208.473923 253.673599,208.206390 
	C253.384750,208.406433 253.095886,208.606491 252.807037,208.806534 
	C245.946289,219.355408 239.085541,229.904282 232.175827,240.528473 
	C227.915314,238.800247 223.479523,236.993561 219.037750,235.201645 
	C215.737701,233.870346 214.373413,231.534637 215.482559,228.068512 
	C217.898788,220.517715 220.385544,212.989487 223.251938,204.199493 
	C221.047989,206.042801 219.468719,207.180969 218.105270,208.536240 
	C212.731277,213.877960 207.164047,218.736588 199.100449,219.565659 
	C197.763855,219.703110 196.378311,221.213623 195.372025,222.393707 
	C191.057098,227.453888 187.063721,232.799423 182.587448,237.707428 
	C178.820282,241.837952 174.052139,241.882019 168.061630,238.766479 
	C163.517960,236.403366 163.747696,232.801605 164.709579,228.547882 
	C166.505188,220.607239 167.956436,212.587997 169.498383,204.591309 
	C169.825943,202.892517 169.928345,201.150299 170.315216,197.918289 
	C164.485321,205.153671 159.935440,211.461578 154.691620,217.127182 
	C149.176239,223.086136 143.332993,228.849899 137.007843,233.918854 
	C131.340454,238.460678 124.590752,240.283127 117.390907,236.858292 
	C106.343498,231.603241 102.707863,223.936142 106.230042,210.911652 
	C110.269997,195.972504 118.140312,183.121841 129.968948,173.013062 
	C138.203873,165.975449 144.920776,165.953308 152.942307,171.978561 
	C156.570206,174.703629 157.955811,178.113266 156.751068,182.442703 
	C153.300140,194.844101 147.604752,206.217651 141.047638,217.116669 
	C135.021164,214.686707 129.301285,212.380371 122.633110,209.691650 
	C122.059120,214.595322 121.146820,218.349945 121.290199,222.063797 
	C121.535843,228.426498 125.555351,230.904160 131.583618,228.606415 
	C134.179993,227.616791 137.035172,226.344498 138.821991,224.349167 
	C150.228226,211.611984 161.925262,199.060989 172.266693,185.488724 
	C175.457901,181.300552 174.715988,174.115524 175.739563,168.496857 
	C179.451614,170.018494 183.428802,172.045288 187.639526,173.267532 
	C192.191025,174.588715 192.819809,177.208954 191.559204,181.156906 
	C188.529022,190.646805 185.505051,200.139221 182.571091,209.659119 
	C180.866165,215.191147 179.340042,220.778275 178.413589,226.629807 
	C181.225861,221.438416 187.747147,218.309341 186.216965,210.707367 
	C185.897186,209.118774 187.632690,206.719711 189.014343,205.252960 
	C195.573196,198.289978 199.390503,189.896271 202.217987,180.955032 
	C206.862122,166.269104 203.325424,155.120163 191.098663,145.730972 
	C189.659561,144.625854 188.124893,143.645157 186.627167,142.601639 
	C194.372696,136.889633 216.776947,140.889099 221.723877,152.677216 
	C223.927109,157.927338 223.191559,164.852417 222.395020,170.831467 
	C220.499908,185.056763 212.920120,196.904160 204.853516,208.731766 
	C204.706482,209.000061 204.676895,209.020844 204.670853,209.015411 
	C204.547684,208.904922 204.427200,208.791428 204.306198,208.678528 
M413.384155,186.824020 
	C408.166046,190.844727 404.671906,195.966141 404.091766,202.621674 
	C403.877075,205.084244 403.626465,208.176178 407.565033,208.491684 
	C420.635223,209.538635 434.839264,191.835587 430.810699,178.054962 
	C425.080078,180.874420 419.507629,183.616043 413.384155,186.824020 
M141.224655,185.740646 
	C142.174683,183.191406 143.124710,180.642166 144.074738,178.092926 
	C135.397888,182.668076 131.685287,190.693771 127.462112,198.616745 
	C129.731247,200.012192 131.634491,201.182617 133.882507,202.565079 
	C136.326752,197.033432 138.659714,191.753662 141.224655,185.740646 
z"/>
<path fill="#050505" opacity="1.000000" stroke="none" 
	d="
M58.180553,228.263916 
	C78.123322,211.126572 90.041794,189.864059 91.944809,163.980759 
	C93.246246,146.279556 82.497772,138.229355 65.121994,142.336456 
	C41.742893,147.862595 20.761168,171.055115 24.993172,196.558701 
	C25.064262,196.987122 24.916140,197.451920 24.878328,197.821381 
	C20.407099,190.936584 15.899044,184.085693 11.485395,177.174500 
	C6.676262,169.644073 8.998297,162.384308 12.947762,155.554703 
	C19.322239,144.531662 29.498980,137.917496 40.951523,133.264984 
	C54.303875,127.840698 68.201073,125.304695 82.398064,129.127823 
	C86.844398,130.325180 91.002594,133.264572 94.802467,136.070450 
	C108.867470,146.456223 110.944756,160.677124 107.119858,176.604034 
	C101.341904,200.663574 90.686951,221.893051 70.844193,237.487152 
	C63.290672,243.423340 54.640751,246.787369 44.760822,244.118057 
	C42.576149,243.527817 40.104984,242.631790 38.626549,241.064529 
	C35.017700,237.238907 31.451002,233.208450 28.812880,228.706390 
	C27.612225,226.657410 27.905138,223.021439 28.809240,220.583130 
	C31.629675,212.976639 34.913124,205.528503 38.296806,198.147202 
	C43.827469,186.082367 49.715687,174.180206 55.154793,162.075378 
	C56.818066,158.373703 57.503693,154.232727 58.672997,150.167923 
	C58.403294,150.167923 58.599159,150.109528 58.732437,150.176224 
	C73.426300,157.529449 73.491821,158.137360 66.727020,173.129654 
	C59.839302,188.394363 53.131912,203.749146 46.799847,219.250076 
	C45.106476,223.395432 45.073399,228.219025 44.278099,232.731232 
	C44.764164,233.191177 45.250225,233.651138 45.736286,234.111084 
	C49.788971,232.235718 53.841652,230.360367 58.180553,228.263916 
z"/>
<path fill="#050505" opacity="1.000000" stroke="none" 
	d="
M181.362152,75.360901 
	C177.152512,81.191315 172.746155,86.893410 168.821960,92.910011 
	C167.043243,95.637154 166.475616,99.124298 164.920853,102.032669 
	C158.592316,113.870789 152.549942,125.903191 145.445663,137.266006 
	C142.391708,142.150620 137.458679,146.261322 132.569611,149.501999 
	C125.547195,154.156708 120.718849,152.136810 117.158028,144.499100 
	C115.558846,141.068954 113.736725,137.742752 111.823448,133.992416 
	C126.018280,137.927490 133.795593,128.874985 141.344101,119.584290 
	C143.529449,116.894562 145.185745,113.775002 147.383972,110.418518 
	C147.682037,109.738251 147.680740,109.491974 147.679428,109.245697 
	C147.315582,109.355789 146.951736,109.465881 146.587891,109.575974 
	C141.065414,114.445068 135.311066,118.957390 127.840294,120.404747 
	C114.955887,122.900894 107.150826,119.245911 104.167160,104.540413 
	C102.865311,98.124077 103.484505,90.789749 105.175400,84.385628 
	C112.597458,56.275253 128.723999,33.994339 152.891327,17.871042 
	C158.005692,14.458975 164.233444,12.445681 170.208786,10.659665 
	C178.493179,8.183474 185.076996,11.937691 190.637207,17.902924 
	C193.361908,20.826092 192.858597,24.045233 191.234543,27.152288 
	C188.081772,33.183975 184.763687,39.129768 181.480606,45.092716 
	C176.352127,54.407383 171.678818,63.861668 172.277924,74.828781 
	C168.473511,71.888634 164.900055,69.051445 161.246887,66.320908 
	C155.351669,61.914570 153.971603,58.123901 157.620804,51.777885 
	C162.415710,43.439522 167.986908,35.546951 173.242233,27.474360 
	C174.776199,25.118067 176.371323,22.801588 177.380859,19.487160 
	C173.967804,20.966002 170.268814,22.002371 167.187057,23.993851 
	C143.006927,39.619377 127.550964,61.446835 121.599213,89.701187 
	C120.401115,95.388840 119.513596,101.923111 125.276215,105.712547 
	C131.202255,109.609459 137.003876,106.181564 141.837997,102.677795 
	C146.305527,99.439735 150.024567,95.168961 154.882355,90.590401 
	C147.030197,87.814156 140.615784,87.568138 133.591766,89.141518 
	C133.111923,89.097832 132.981873,88.982849 132.981873,88.982849 
	C133.624924,87.680344 134.247223,86.367119 134.914276,85.077026 
	C140.262909,74.732689 142.256454,73.844284 153.658554,76.463066 
	C162.608109,78.518562 171.538513,79.865326 180.593689,75.011566 
	C181.095123,75.094505 181.362137,75.360901 181.362152,75.360901 
z"/>
<path fill="#090909" opacity="1.000000" stroke="none" 
	d="
M246.020203,164.848953 
	C242.003525,162.384659 242.139801,159.094055 243.215195,155.484375 
	C244.897430,149.837784 246.505600,144.169128 248.203308,138.309174 
	C250.757431,139.638489 253.799240,141.217499 256.837250,142.803711 
	C261.959808,145.478287 262.495636,147.209015 259.326141,152.175232 
	C257.366241,155.246231 255.017212,158.066391 252.980927,161.092087 
	C251.634308,163.093002 250.532547,165.258728 249.287674,167.408478 
	C248.376556,166.686493 247.343826,165.868164 246.020203,164.848953 
z"/>
<path fill="#F3F3F3" opacity="1.000000" stroke="none" 
	d="
M325.880432,212.044281 
	C323.095093,215.307007 320.028290,218.546906 316.931702,221.818237 
	C304.208527,205.834717 307.565063,185.980652 325.717194,175.341064 
	C323.368958,179.296860 321.652893,182.127975 319.997742,184.994278 
	C318.587494,187.436356 317.148712,189.869843 315.894470,192.392609 
	C311.917603,200.391602 312.104187,201.143616 318.737823,207.198364 
	C320.449249,208.760406 322.072052,210.419510 324.105225,212.060593 
	C324.849548,212.065262 325.224243,212.043350 325.880432,212.044281 
z"/>
<path fill="#050505" opacity="1.000000" stroke="none" 
	d="
M133.178421,89.153595 
	C132.935883,89.379120 132.626862,89.548874 132.317841,89.718628 
	C132.348648,89.486206 132.379456,89.253769 132.696075,89.002090 
	C132.981873,88.982849 133.111923,89.097832 133.178421,89.153595 
z"/>
<path fill="#050505" opacity="1.000000" stroke="none" 
	d="
M180.961945,74.960976 
	C181.106735,74.605682 181.384689,74.383926 181.662643,74.162170 
	C181.710220,74.438393 181.757797,74.714622 181.583755,75.175873 
	C181.362137,75.360901 181.095123,75.094505 180.961945,74.960976 
z"/>
<path fill="#F3F3F3" opacity="1.000000" stroke="none" 
	d="
M443.525818,98.046280 
	C442.476288,96.757385 441.090881,95.204758 441.142731,93.701698 
	C441.598541,80.488464 446.790466,69.195122 455.649872,59.462254 
	C454.462341,73.107414 449.718292,85.628235 443.525818,98.046280 
z"/>
<path fill="#F0F0F0" opacity="1.000000" stroke="none" 
	d="
M205.719025,84.256470 
	C204.035767,83.150314 202.643234,82.262718 200.864487,81.128929 
	C205.147873,73.487030 208.665985,65.446190 216.236664,60.398811 
	C216.692001,60.611397 217.147354,60.823978 217.602692,61.036564 
	C214.935287,67.445412 212.370285,73.900200 209.529678,80.231339 
	C208.804749,81.847069 207.206665,83.071053 205.719025,84.256470 
z"/>
<path fill="#F3F3F3" opacity="1.000000" stroke="none" 
	d="
M332.298065,63.295578 
	C333.852661,62.070183 335.156921,61.096027 336.461151,60.121872 
	C336.846191,60.346348 337.231201,60.570824 337.616241,60.795303 
	C334.224396,68.870758 330.832550,76.946205 327.322906,85.302109 
	C324.817841,83.710449 322.922791,82.506378 320.271851,80.822037 
	C324.277374,74.945938 328.162537,69.246376 332.298065,63.295578 
z"/>
<path fill="#EDEDED" opacity="1.000000" stroke="none" 
	d="
M430.605591,92.592041 
	C431.550964,89.827110 432.355103,87.445740 433.159241,85.064369 
	C433.539948,92.795776 431.047211,100.735611 438.019440,106.844017 
	C437.772308,107.352692 437.679291,107.967651 437.336121,108.181839 
	C435.089325,109.584259 432.788422,110.900002 430.505188,112.244049 
	C429.781616,109.378868 428.441528,106.503105 428.490479,103.651184 
	C428.551727,100.082413 429.754395,96.533234 430.605591,92.592041 
z"/>
<path fill="#FDFDFD" opacity="1.000000" stroke="none" 
	d="
M400.055603,98.052948 
	C400.037964,98.595284 399.826843,98.964821 399.615723,99.334351 
	C399.478302,98.887398 399.340912,98.440445 399.335693,97.768204 
	C399.599274,97.655327 399.730682,97.767738 400.055603,98.052948 
z"/>
<path fill="#FDFDFD" opacity="1.000000" stroke="none" 
	d="
M494.983032,105.966606 
	C494.967224,105.199547 495.174744,104.617889 495.704285,103.133553 
	C495.851776,104.689102 495.909332,105.296173 495.824341,106.194168 
	C495.523346,106.374062 495.364868,106.263039 494.983032,105.966606 
z"/>
<path fill="#FDFDFD" opacity="1.000000" stroke="none" 
	d="
M459.016510,92.022087 
	C458.851044,92.244339 458.706787,92.493935 458.562561,92.743530 
	C458.556427,92.417511 458.550293,92.091499 458.809814,91.936485 
	C459.075470,92.107491 459.037750,92.049431 459.016510,92.022087 
z"/>
<path fill="#FDFDFD" opacity="1.000000" stroke="none" 
	d="
M356.909424,89.902847 
	C357.050354,89.550316 357.390778,89.391922 357.731171,89.233521 
	C357.781891,89.497131 357.832642,89.760742 357.703857,90.245880 
	C357.385864,90.343933 357.247375,90.220459 356.909424,89.902847 
z"/>
<path fill="#FAFAFA" opacity="1.000000" stroke="none" 
	d="
M413.659668,186.590851 
	C419.507629,183.616043 425.080078,180.874420 430.810699,178.054962 
	C434.839264,191.835587 420.635223,209.538635 407.565033,208.491684 
	C403.626465,208.176178 403.877075,205.084244 404.091766,202.621674 
	C404.671906,195.966141 408.166046,190.844727 413.659668,186.590851 
z"/>
<path fill="#F1F1F1" opacity="1.000000" stroke="none" 
	d="
M141.108658,186.107269 
	C138.659714,191.753662 136.326752,197.033432 133.882507,202.565079 
	C131.634491,201.182617 129.731247,200.012192 127.462112,198.616745 
	C131.685287,190.693771 135.397888,182.668076 144.074738,178.092926 
	C143.124710,180.642166 142.174683,183.191406 141.108658,186.107269 
z"/>
<path fill="#FDFDFD" opacity="1.000000" stroke="none" 
	d="
M252.956451,208.955627 
	C253.095886,208.606491 253.384750,208.406433 253.673599,208.206390 
	C253.721313,208.473923 253.769028,208.741455 253.612030,209.204636 
	C253.407333,209.400284 253.105881,209.104721 252.956451,208.955627 
z"/>
<path fill="#FDFDFD" opacity="1.000000" stroke="none" 
	d="
M204.345703,208.697784 
	C204.427200,208.791428 204.547684,208.904922 204.670853,209.015411 
	C204.676895,209.020844 204.706482,209.000061 204.511978,208.846680 
	C204.298859,208.701859 204.385223,208.717041 204.345703,208.697784 
z"/>
<path fill="#FDFDFD" opacity="1.000000" stroke="none" 
	d="
M146.729980,109.722870 
	C146.951736,109.465881 147.315582,109.355789 147.679428,109.245697 
	C147.680740,109.491974 147.682037,109.738251 147.422272,110.071640 
	C147.161179,110.158745 146.872086,109.869766 146.729980,109.722870 
z"/>
</svg>