<svg version="1.1" id="Layer_1" xmlns="http://www.w3.org/2000/svg" xmlns:xlink="http://www.w3.org/1999/xlink" x="0px" y="0px"
	 width="100%" viewBox="0 0 1024 1024" enable-background="new 0 0 1024 1024" xml:space="preserve">
<path fill="#000000" opacity="1.000000" stroke="none" 
	d="
M258.166443,508.163391 
	C264.151733,501.333008 270.311157,494.954010 269.617554,485.048279 
	C266.896332,484.960785 265.326355,486.378387 263.784119,487.494263 
	C256.633820,492.668030 249.450470,497.814209 242.544510,503.304291 
	C221.007782,520.425598 178.735809,518.767334 168.260315,481.205353 
	C167.695724,479.180939 167.472519,476.968475 164.645203,476.430817 
	C146.039078,472.892578 138.714905,459.541656 135.485596,442.680573 
	C134.779327,438.992950 135.014297,435.223755 132.676331,431.743652 
	C131.103348,429.402222 132.634506,426.244049 133.500763,423.561462 
	C137.277573,411.865814 144.131882,401.741943 150.129028,391.182251 
	C151.527283,388.720215 152.876068,386.213348 154.482193,383.889282 
	C159.196609,377.067535 160.739517,370.083771 158.119400,361.779480 
	C155.956177,354.923248 159.217880,348.795715 163.694443,343.425568 
	C173.746796,331.366577 184.891357,320.370941 196.471390,309.814636 
	C199.535629,307.021271 201.581360,304.564667 200.847305,299.783875 
	C199.595703,291.632263 201.993576,283.945221 206.344193,276.941650 
	C212.295135,267.361908 222.376236,264.581329 232.285950,269.840973 
	C237.623032,272.673645 242.431961,276.268341 246.453720,280.794342 
	C249.004700,283.665192 252.237213,284.874237 255.832642,284.572418 
	C272.904755,283.139435 289.927795,280.958038 307.121246,281.624512 
	C308.874939,281.692505 310.347382,280.861053 311.631714,279.742401 
	C319.290070,273.072021 328.385254,268.899261 337.636505,265.122284 
	C347.737579,260.998352 356.334686,263.476166 362.724548,272.322845 
	C365.932465,276.764160 368.601135,281.606750 371.348328,286.363373 
	C372.496185,288.350922 373.783356,289.954498 376.124603,290.347565 
	C390.844666,292.818817 403.768494,299.764069 416.735748,306.607361 
	C430.450104,313.844940 444.228790,320.901947 459.748718,323.589142 
	C485.293365,328.012085 510.421631,325.560730 535.359680,319.266815 
	C555.992798,314.059448 576.245728,307.419952 597.133728,303.161835 
	C621.525513,298.189484 645.943726,298.155121 670.572327,301.312225 
	C695.460144,304.502533 720.068054,309.834534 745.140625,311.483704 
	C775.375671,313.472504 804.409973,308.832031 830.504822,292.546112 
	C846.708008,282.433594 859.371826,268.498108 868.971680,251.913376 
	C872.554199,245.724228 873.380127,239.141220 871.556030,232.171722 
	C869.820190,225.539337 863.622925,220.211685 856.561035,219.239594 
	C850.969482,218.469925 845.659729,219.984070 840.235901,220.729767 
	C824.895935,222.838806 813.197815,211.842651 815.930115,197.763855 
	C817.575134,189.287567 822.502075,182.879028 829.890442,178.527176 
	C852.148010,165.417221 886.980164,170.673492 903.964050,190.016251 
	C914.136841,201.601929 918.320374,215.819351 919.251465,230.906921 
	C921.066772,260.321899 908.771973,284.436066 889.376831,305.207703 
	C863.524292,332.894989 832.003113,351.490295 795.297302,361.138550 
	C793.709961,361.555817 791.986938,361.601044 790.644104,363.279663 
	C792.242065,367.621735 795.690979,370.870392 798.322449,374.618744 
	C811.071838,392.779388 824.442749,410.435913 841.075562,425.322662 
	C850.105164,433.404327 859.743225,440.289276 872.180298,442.308990 
	C877.285828,443.138123 882.097046,441.598083 887.083496,441.583282 
	C895.705505,441.557739 901.683594,445.219635 905.463623,452.871033 
	C910.424744,462.913208 913.502136,473.662445 917.335876,484.126923 
	C921.936340,496.684204 927.858887,508.591553 934.693726,520.066956 
	C938.802856,526.966187 944.213806,532.642334 951.468567,536.055420 
	C970.224854,544.879456 973.015076,564.732239 970.825867,577.760620 
	C968.210938,593.322205 954.175293,604.961060 937.067139,607.374451 
	C929.712830,608.411865 922.451538,608.557312 915.243225,607.001831 
	C905.434631,604.885132 898.465637,598.494507 892.411987,590.943115 
	C885.036560,581.742920 880.098755,571.197693 875.615295,560.394714 
	C873.378113,555.003967 870.657288,549.869324 867.388062,544.997864 
	C862.435974,537.618469 855.558411,533.817810 846.908752,535.536804 
	C827.812988,539.331604 809.577454,535.286682 791.266541,530.792358 
	C781.627258,528.426331 771.891785,526.451782 761.997253,524.255554 
	C760.332214,529.743530 762.995239,533.171814 766.054749,536.224365 
	C771.847351,542.003784 779.366211,544.145447 787.127319,545.720825 
	C799.949707,548.323608 803.308777,552.232300 804.356812,565.115662 
	C804.773682,570.241150 805.531433,575.338013 806.073853,580.454346 
	C807.345581,592.449951 813.243896,602.090393 821.359558,610.606018 
	C825.611389,615.067444 830.115845,619.310059 834.113586,623.987122 
	C842.292908,633.556641 841.572205,643.816833 831.431824,651.258911 
	C814.602844,663.609863 786.853638,666.301147 774.529175,638.705505 
	C769.472595,627.383240 766.760620,615.351868 762.783569,603.710022 
	C756.769409,586.105347 747.325439,579.039368 728.916931,578.221375 
	C716.456421,577.667664 703.962769,578.339905 691.526428,576.637756 
	C676.261230,574.548462 662.673218,568.617249 650.735046,559.129639 
	C646.453918,555.727295 642.991028,555.722473 638.135620,557.657959 
	C605.503235,570.665405 572.615295,582.942688 538.218384,590.656067 
	C518.022278,595.184937 497.611694,597.782898 476.917542,597.875916 
	C473.260437,597.892334 471.075562,599.069031 469.500458,602.378113 
	C463.523926,614.933899 453.549835,622.654419 440.574310,627.588196 
	C411.861603,638.505676 381.939056,645.086670 352.440002,653.192322 
	C332.832184,658.580017 313.590149,664.908325 295.063477,673.419983 
	C283.094086,678.919006 275.840973,687.589050 273.092621,700.548401 
	C270.457825,712.972229 266.843597,725.210083 258.099335,734.972290 
	C248.498001,745.691345 237.011246,752.175598 221.921494,749.473083 
	C217.926178,748.757568 214.287247,749.784607 211.122299,752.265503 
	C205.008026,757.058228 198.339249,757.424500 191.317947,754.829773 
	C188.507614,753.791199 186.210922,753.478394 183.593185,755.834595 
	C180.168350,758.917053 176.070587,757.766785 172.340073,755.974854 
	C161.149933,750.599792 151.545929,732.734070 152.240387,720.249573 
	C153.083557,705.091370 161.240051,693.959961 171.495865,684.152222 
	C185.864075,670.411865 196.977951,654.347290 207.246613,637.191772 
	C204.486572,634.509949 201.262802,635.274048 198.272141,635.635071 
	C186.807373,637.019409 177.791077,643.037781 169.767609,650.926636 
	C163.115265,657.467285 156.499527,664.072754 148.128479,668.509705 
	C141.804092,671.861816 135.437943,674.034607 128.064865,671.650818 
	C123.912666,670.308289 119.479935,670.627441 115.474052,672.968323 
	C108.839111,676.845642 101.954704,677.257690 94.850075,674.387207 
	C91.899300,673.195068 89.160706,673.054138 86.428497,675.220459 
	C84.452744,676.786987 82.069626,676.348145 79.725128,675.685425 
	C68.743546,672.581116 62.057278,663.227112 61.861942,649.709412 
	C61.717628,639.722473 64.128654,630.273987 69.365440,621.627747 
	C75.454971,611.573608 84.147125,604.853943 95.522285,602.166687 
	C112.799698,598.085144 127.677612,589.591125 141.253464,578.501099 
	C152.229065,569.535156 164.715332,563.441528 177.869965,558.384277 
	C207.748566,546.897522 234.396942,530.138000 258.166443,508.163391 
M620.619019,394.034119 
	C621.212646,396.282043 621.800964,398.531372 622.400696,400.777679 
	C629.725281,428.213409 634.322632,456.324219 643.327271,483.359192 
	C648.320618,498.351074 651.603882,513.697266 643.998474,530.188171 
	C662.794617,520.289307 682.055603,515.009888 700.820496,509.096283 
	C700.885498,507.076447 699.974609,506.167969 699.023499,505.620544 
	C688.536072,499.584625 685.170227,488.996552 681.733093,478.525848 
	C675.245972,458.763855 670.751404,438.459015 665.633301,418.326019 
	C664.599426,414.259033 663.217712,410.210663 664.465881,405.343872 
	C688.581604,438.650574 712.697327,471.957306 737.665894,506.441925 
	C743.014832,488.081238 745.079712,470.653870 746.483948,453.217896 
	C747.885193,435.818604 748.169312,418.329346 748.978394,400.086823 
	C752.699219,402.054413 753.906860,404.454468 755.116455,406.776794 
	C759.056763,414.342102 761.889893,422.351501 763.896667,430.609863 
	C769.572205,453.967072 774.130249,477.410492 768.384033,501.520813 
	C766.767700,508.302612 766.933655,508.324005 774.065491,510.058838 
	C776.326904,510.608948 778.556152,511.290100 780.805969,511.889160 
	C789.082031,514.092773 789.761108,513.508972 794.320679,506.284637 
	C806.535400,486.930878 810.156677,465.972809 806.733032,443.585846 
	C803.815552,424.508362 798.823547,406.140930 787.729065,389.969971 
	C778.000122,375.789368 767.232056,362.441162 754.908630,350.424316 
	C743.599915,339.396942 730.657288,331.313507 714.727478,328.646332 
	C706.282654,327.232391 704.380859,328.547394 704.343750,336.939728 
	C704.333435,339.270660 704.250549,341.620300 704.494751,343.930298 
	C706.344971,361.433289 708.364868,378.911804 711.141418,396.303406 
	C711.849121,400.736267 713.395142,405.201813 712.616760,409.879608 
	C709.684875,410.127991 708.498779,408.147858 707.185364,406.513153 
	C701.649780,399.623505 696.563110,392.398071 691.912659,384.893921 
	C678.750000,363.654053 664.844482,342.911102 650.666687,322.341248 
	C647.046753,317.089325 642.526550,314.947998 636.176208,316.011902 
	C624.548401,317.960022 613.018799,320.461761 601.276978,321.804962 
	C596.299072,322.374420 591.090271,322.426666 585.512024,325.012360 
	C592.149841,329.001953 595.589233,334.873138 599.152222,340.663971 
	C609.201599,356.997131 615.200867,374.960175 620.619019,394.034119 
M188.733032,335.235413 
	C184.322525,339.296753 179.942642,343.392029 175.494553,347.411774 
	C168.202805,354.001434 168.102142,354.036316 173.792618,362.433746 
	C176.357239,366.218353 176.827957,370.645905 174.031296,373.493408 
	C171.510559,376.059845 170.325333,378.856110 169.067184,381.829773 
	C165.677856,389.840515 161.828720,397.517059 155.943756,404.093628 
	C151.175781,409.421875 149.907639,416.396454 146.793640,423.388153 
	C162.279221,425.876526 176.554062,424.918610 190.797501,421.958496 
	C192.819504,425.789642 190.711594,428.367462 188.929779,430.904114 
	C184.850616,436.711426 179.014847,440.723572 173.794510,445.353180 
	C171.077164,447.763062 170.802536,449.789398 173.736786,452.266541 
	C178.483368,456.273712 183.499512,459.830475 189.342026,461.997833 
	C200.606277,466.176453 211.408829,466.282349 221.404510,458.363525 
	C227.271973,453.715088 233.451080,449.462067 239.413620,444.930695 
	C242.140594,442.858307 245.138077,441.783203 248.234253,443.277802 
	C251.216431,444.717316 250.244064,447.896820 250.255157,450.475983 
	C250.260025,451.615295 249.926910,452.773285 249.636276,453.894012 
	C246.668854,465.337677 239.875946,474.186646 230.738480,481.362671 
	C226.504501,484.687836 225.192261,484.498871 222.843628,479.539764 
	C220.873154,475.379120 218.251755,474.885071 214.384354,476.414215 
	C209.148865,478.484283 203.829941,478.601074 198.219925,477.596252 
	C190.055817,476.134003 182.810577,472.724060 175.226822,468.038239 
	C177.320969,476.442566 180.668762,483.353058 185.849045,489.346161 
	C192.224487,496.721893 200.176971,500.379761 210.067795,499.986298 
	C219.580017,499.607819 227.770981,495.903168 235.606781,490.915924 
	C251.483200,480.811096 263.055908,465.215240 280.151123,456.517883 
	C285.337250,453.879425 290.535065,453.562561 294.361542,455.843353 
	C295.336121,456.424255 296.024536,457.445709 297.425690,457.042969 
	C304.043671,455.140717 310.532379,452.774689 317.253784,452.178314 
	C317.611206,449.170563 315.620636,447.133759 316.611420,444.341553 
	C320.366364,444.483826 323.373535,447.421173 327.457520,447.820465 
	C324.699066,441.142395 321.124084,435.292267 320.356537,428.091980 
	C325.920685,432.445587 331.100189,437.363892 339.084351,434.981445 
	C339.398285,427.174194 334.874908,420.965729 333.185791,413.742615 
	C335.272156,415.234894 337.358490,416.727142 339.753571,418.440247 
	C339.607697,412.053406 335.865967,406.739166 336.830505,400.461365 
	C339.438873,401.542999 340.255920,404.348236 343.543335,405.299469 
	C339.103424,393.365356 334.912079,382.099396 330.720764,370.833435 
	C331.103699,370.625214 331.486633,370.417023 331.869568,370.208801 
	C338.630737,377.941681 343.729309,386.993042 349.960052,395.272858 
	C351.947479,393.682037 351.728241,392.091766 351.615906,390.667816 
	C351.158600,384.870178 350.573517,379.082794 350.060760,373.289368 
	C349.160522,363.117279 344.959534,355.154694 335.225647,350.782043 
	C334.256439,350.346710 333.107117,349.681580 333.307404,347.889526 
	C336.713531,345.922363 340.605713,344.455750 343.786255,341.705750 
	C357.778229,329.608093 362.104309,313.840118 360.336975,296.245789 
	C358.926971,282.209015 346.990204,270.621979 330.149872,282.600067 
	C320.996857,289.110413 310.181885,293.300232 302.758209,302.229736 
	C302.445190,302.606201 302.002930,302.883301 301.596893,303.173065 
	C297.023224,306.436890 294.720947,305.532745 293.840179,299.992767 
	C293.567230,298.275909 293.594940,296.452026 291.302612,296.424164 
	C282.902771,296.322021 274.462738,295.756226 265.755463,297.871033 
	C268.274017,301.634521 272.494904,304.073181 271.739014,309.674133 
	C255.086868,295.754913 238.625412,295.573975 222.046112,308.858398 
	C234.582092,310.118896 249.703033,303.014282 257.195404,320.671387 
	C232.261154,315.106262 209.252670,317.930023 188.733032,335.235413 
M405.057495,589.673157 
	C413.240479,587.720581 419.509705,582.286316 426.388641,577.957947 
	C435.410889,572.280884 442.877045,574.498352 448.358429,584.853699 
	C442.133453,583.351379 436.869965,585.402893 430.587372,588.348267 
	C435.317719,588.746155 438.900970,589.006958 442.475159,589.359314 
	C446.231567,589.729614 449.353119,591.578735 452.152283,594.072266 
	C453.994476,592.194397 454.194366,590.014404 454.647675,587.942688 
	C456.470612,579.611267 456.351837,571.091125 457.160797,562.660583 
	C459.521576,538.057983 455.992981,514.844238 441.895477,493.955444 
	C440.074860,491.257751 440.608490,489.559143 443.270996,487.847229 
	C446.628113,485.688690 449.907074,483.357513 452.971283,480.802795 
	C473.995483,463.274353 486.629761,442.128357 482.869629,413.424255 
	C478.876953,382.944641 465.905670,357.930511 439.928955,340.595459 
	C426.618286,331.712860 412.323120,324.467407 398.432312,316.553009 
	C397.675751,316.121948 396.707764,315.339081 395.703735,316.277588 
	C395.672668,316.619934 395.523834,316.990356 395.632690,317.254547 
	C396.964172,320.486237 398.313263,323.711090 399.696350,326.921082 
	C407.708374,345.515991 410.162384,364.936707 408.345276,384.993652 
	C408.193390,386.669861 408.100250,388.625122 405.996796,388.862793 
	C403.887085,389.101196 403.363983,387.151855 402.829102,385.602844 
	C401.200439,380.886414 399.769989,376.098633 398.043518,371.419403 
	C393.827606,359.993042 389.348267,348.675507 381.584625,339.056152 
	C378.478821,335.207947 375.065948,331.682465 370.066132,329.498169 
	C368.231659,332.984192 366.876007,336.234528 364.940063,339.091614 
	C361.452759,344.238342 361.666138,349.106842 363.587280,354.989502 
	C372.940186,383.628906 371.982880,411.658691 356.923523,438.421844 
	C351.859589,447.421387 346.434021,456.218231 341.411682,465.240173 
	C335.377960,476.078949 332.041595,487.834839 329.915771,499.760681 
	C332.399323,501.727478 335.076172,499.153503 338.105133,501.340973 
	C335.358215,502.739044 333.264252,503.925354 331.072510,504.889374 
	C328.410095,506.060394 326.465332,507.459656 327.853577,510.832275 
	C330.397186,510.745453 332.082977,509.311523 333.689301,507.918671 
	C338.846924,503.446228 343.985413,498.947205 349.007172,494.323669 
	C356.892456,487.063629 366.025543,482.118958 376.321106,479.297760 
	C381.780975,477.801605 387.252441,477.314606 393.034363,479.674286 
	C390.749969,483.359772 387.096405,483.839722 383.978546,485.050507 
	C373.691742,489.045349 363.613373,493.584930 354.920471,500.380798 
	C334.133606,516.631348 319.452942,537.829224 307.628235,561.510986 
	C313.668762,562.663879 319.733673,565.317383 325.753448,568.092957 
	C326.342682,568.364685 327.152344,568.759033 327.640411,568.559692 
	C335.165070,565.485596 342.028320,568.819092 348.904297,570.929993 
	C352.464905,572.023071 354.383148,571.166565 356.367401,568.229004 
	C360.841583,561.605042 365.619873,555.186096 370.293884,548.697754 
	C373.075562,544.836304 372.804108,543.192017 368.423523,541.090820 
	C363.269440,538.618652 357.739777,537.475098 352.014709,537.268433 
	C347.230438,537.095703 347.231720,537.060181 344.200500,534.983887 
	C353.385284,533.188904 362.661804,531.915955 371.070404,534.903992 
	C378.494049,537.541992 382.314423,535.477417 386.001587,529.725159 
	C387.422699,527.508057 389.393311,525.610901 391.274902,523.729309 
	C393.666290,521.338074 395.206879,517.996399 398.912598,516.518433 
	C405.475159,526.119873 411.656616,535.835815 411.082947,547.715332 
	C410.302185,563.882690 404.040741,577.368164 387.536865,585.611633 
	C393.934052,587.898804 398.923645,589.405518 405.057495,589.673157 
M540.067993,341.567841 
	C523.795166,343.054016 507.399323,343.218109 490.637756,345.348114 
	C492.438843,349.341827 494.065826,352.399597 495.230499,355.624359 
	C501.274597,372.359192 503.738434,389.768127 504.271912,407.445984 
	C505.192291,437.943848 503.029327,468.242554 498.501129,498.432678 
	C495.171997,520.628540 492.495209,542.888428 483.701569,563.848328 
	C482.230652,567.354187 480.537354,571.118652 481.306366,575.510071 
	C500.945862,576.903870 519.612732,572.963867 538.072083,568.714172 
	C538.204773,566.624878 537.352417,565.940857 536.480225,565.565979 
	C528.924683,562.318970 527.696960,555.909607 527.647339,548.677673 
	C527.569397,537.324768 529.131104,526.144348 530.577393,514.931641 
	C530.899780,512.432190 532.029907,511.369110 534.175415,510.956665 
	C548.521118,508.198822 562.869812,505.456390 577.225220,502.749695 
	C579.287598,502.360809 581.223511,502.431946 582.047607,504.986481 
	C584.445679,512.419800 586.982971,519.809204 589.308044,527.264954 
	C591.500854,534.296448 590.136963,540.691467 585.606506,546.529358 
	C584.126831,548.436035 582.381226,550.307312 581.768738,553.813782 
	C600.927002,546.921448 619.663269,540.602478 637.611145,531.602966 
	C635.314941,527.325928 633.273010,523.899902 631.579895,520.309387 
	C617.310303,490.049713 603.133850,459.746063 588.869141,429.484100 
	C579.422913,409.444305 569.403381,389.697784 557.920654,370.731781 
	C552.120605,361.151794 543.768188,353.088776 540.067993,341.567841 
M349.118896,637.498108 
	C380.869141,627.738831 412.619415,617.979553 445.247559,607.950439 
	C441.947388,606.062805 439.556305,606.511292 437.266174,606.252563 
	C427.430176,605.141357 417.190155,606.816040 407.884369,602.026917 
	C406.480042,601.304199 405.321289,601.752319 404.264862,602.754578 
	C397.503693,609.169067 384.134186,606.950256 377.462585,598.761230 
	C365.844299,584.500488 349.416534,580.295288 332.534576,576.873108 
	C332.953888,577.680298 333.520660,578.242554 334.173462,578.674744 
	C348.854187,588.394531 360.054443,602.143860 373.810516,612.938721 
	C375.353455,614.149536 376.783691,615.706360 377.747742,617.398193 
	C378.809814,619.261841 380.029083,621.447937 378.110596,623.949280 
	C372.184052,620.158081 366.799286,616.008057 360.247589,613.962402 
	C353.485809,611.851196 347.552551,608.180054 341.904083,603.985046 
	C335.488098,599.220093 329.478943,593.916382 322.666473,589.673523 
	C315.409607,585.153748 307.723755,582.314392 299.025757,583.325562 
	C291.942047,584.149109 286.321930,587.273865 282.274567,593.931396 
	C292.927063,598.589844 302.508270,603.568176 311.303833,609.942383 
	C320.032471,616.268127 328.200958,623.174438 335.294067,632.012512 
	C331.794617,633.709656 328.915497,634.211670 325.653259,633.826111 
	C315.650421,632.643677 308.317657,626.558655 300.820648,620.731018 
	C292.817963,614.510315 284.180420,609.574097 273.930115,608.406799 
	C261.374786,606.977051 251.255081,612.307617 242.352051,620.538818 
	C232.222443,629.904175 224.720901,641.365417 217.128220,652.710510 
	C206.052002,669.260742 194.164383,685.030701 178.008347,697.102844 
	C174.520859,699.708801 171.822754,703.156311 169.565247,706.898560 
	C163.423096,717.080017 166.542770,732.261292 176.537460,738.211853 
	C176.543457,731.010010 175.542862,724.039490 177.790955,717.348206 
	C180.554688,709.122070 186.188980,703.694153 192.327133,703.797729 
	C191.041931,705.536316 189.801254,707.065125 188.721695,708.700317 
	C183.185806,717.085815 184.264709,729.633606 190.972214,735.329895 
	C194.352036,738.200195 198.235001,738.743408 202.193390,737.100281 
	C205.904724,735.559814 206.830215,732.211060 206.805466,728.432495 
	C206.785904,725.445435 206.978119,722.454163 207.152695,719.469238 
	C207.708237,709.969421 216.158463,705.961853 221.191223,699.599670 
	C222.219971,698.299133 224.266342,698.692749 225.507233,700.321472 
	C224.904739,702.488281 222.904938,703.308716 221.506790,704.670227 
	C211.067673,714.835876 213.571136,730.240479 226.291580,734.045166 
	C232.327988,735.850647 238.789978,733.176819 243.498627,726.777954 
	C248.557281,719.903381 251.020218,711.855347 252.543350,703.698425 
	C256.567566,682.147339 269.623627,668.306213 288.657410,658.861694 
	C307.727905,649.398926 328.039734,643.604248 349.118896,637.498108 
M82.651344,650.419434 
	C81.478783,633.359680 94.949539,619.277466 103.889534,621.711365 
	C104.504570,623.855225 103.155319,625.338806 101.788666,626.417664 
	C96.157898,630.862854 94.066063,637.086670 92.718658,643.713196 
	C91.579620,649.315063 95.951813,655.855835 101.109413,656.597778 
	C104.619347,657.102661 110.000343,653.329407 108.682220,646.621826 
	C108.619415,646.302307 108.634239,645.946716 108.699982,645.625732 
	C111.246170,633.193909 116.357025,622.921143 131.115417,622.498596 
	C131.095490,625.296692 128.877197,626.848633 127.566170,628.826721 
	C125.091866,632.560120 122.158073,635.961609 120.973129,640.480469 
	C118.546104,649.736267 123.946045,656.833069 133.454025,656.806213 
	C137.593155,656.794495 141.266266,655.430298 144.877563,653.643677 
	C151.660233,650.287964 156.434616,644.759521 160.934586,638.921448 
	C167.395645,630.539124 174.852829,623.391907 185.896362,622.058228 
	C191.813629,621.343628 197.869675,621.605408 203.858795,621.699768 
	C212.547409,621.836548 220.085129,619.164673 226.938812,613.780823 
	C235.841278,606.787659 245.041809,600.173706 254.118607,593.402588 
	C266.670929,584.038940 279.241089,574.700989 289.924744,563.122375 
	C292.262787,560.588440 294.121948,557.950562 293.570770,554.248901 
	C291.673309,541.504944 276.302490,528.189209 263.521973,528.244812 
	C261.165375,528.255066 258.482330,528.096252 257.700470,530.924438 
	C256.996338,533.471252 259.619202,534.150879 261.156067,535.193054 
	C275.801880,545.123962 277.014343,563.291443 264.651886,577.879639 
	C264.214539,578.395691 263.566498,578.647461 262.822235,577.940002 
	C262.641541,575.730835 264.261139,574.046387 264.993011,572.089478 
	C267.594910,565.132507 267.980957,558.118774 263.622559,552.002686 
	C259.111969,545.672974 251.550064,543.489563 244.713333,540.526489 
	C244.189438,540.299438 243.370468,540.509033 242.771851,540.735596 
	C235.078705,543.647339 228.939987,548.798096 222.407883,554.355469 
	C225.383804,555.882385 227.776428,557.018921 230.081543,558.311462 
	C235.109665,561.130859 238.463547,565.176758 239.776138,570.964783 
	C242.215057,581.719299 235.957611,599.233093 227.171066,605.593811 
	C226.130203,606.347290 225.037216,607.345703 223.354767,605.774658 
	C225.385620,599.121216 229.063202,592.825928 230.162628,585.729553 
	C230.926025,580.802124 231.788254,575.851135 228.754761,571.232483 
	C223.204849,562.782532 212.442734,559.986816 203.202377,564.629578 
	C197.549561,567.469788 191.910034,570.345276 186.172043,573.005371 
	C173.627396,578.821106 160.764511,584.179565 149.837814,592.792480 
	C132.366119,606.564575 113.290230,616.415283 90.996361,619.382629 
	C87.416237,619.859192 84.387520,621.703247 82.071815,624.481445 
	C77.621941,629.820129 74.509514,635.835388 73.478539,642.780762 
	C72.388985,650.120850 76.950005,658.041870 83.127312,659.229492 
	C82.966431,656.558777 82.809212,653.948914 82.651344,650.419434 
M828.214172,438.317535 
	C825.131104,435.634674 822.047974,432.951813 818.077515,429.496826 
	C820.577515,441.363007 823.930359,451.843750 824.798035,462.751190 
	C826.464722,483.702606 822.559631,502.577423 804.008972,515.640686 
	C803.479858,516.013245 802.936829,516.472656 803.289734,517.490417 
	C810.744446,520.761292 818.701782,521.928345 826.937622,521.938843 
	C838.666382,521.953735 850.326172,522.003967 860.142639,513.975769 
	C863.483582,511.243469 866.953247,508.631073 871.588562,508.317078 
	C872.885559,508.229248 874.167908,507.396210 874.624878,505.996307 
	C876.052795,501.622253 880.117432,501.408905 884.088745,499.542358 
	C881.139526,511.392120 869.007874,514.125061 863.104309,522.862366 
	C873.309692,526.657227 878.620972,534.620117 883.062988,543.031006 
	C889.120178,554.500305 894.531616,566.312439 900.142700,578.014587 
	C902.016785,581.922974 903.723633,585.922913 906.530090,589.274536 
	C911.962646,595.762390 920.248413,596.531372 926.842285,591.136047 
	C924.958618,587.545776 920.635132,585.809998 919.113159,581.661377 
	C923.844910,582.053589 923.844910,582.053589 928.951599,587.662842 
	C932.449158,591.504639 935.345764,591.574219 939.678467,587.920776 
	C943.633850,584.585510 943.687439,582.663513 940.187622,578.271423 
	C938.549744,576.216064 935.877563,574.669617 935.982056,570.998413 
	C939.869202,571.614258 941.808899,574.238831 944.013794,576.329224 
	C947.567383,579.698181 951.082397,579.510437 954.724609,576.624329 
	C960.759521,571.842285 960.612488,563.251648 954.174988,556.426575 
	C950.748047,552.793457 946.899719,549.607422 942.601501,546.974182 
	C931.190857,539.983582 922.902405,530.120544 917.086731,518.215881 
	C913.657715,511.196838 910.794067,503.901642 907.675415,496.730957 
	C903.168274,486.367310 899.436035,475.611053 892.028320,466.745850 
	C887.836060,461.728760 882.895996,458.646851 876.044189,459.310577 
	C866.957214,460.190826 858.626282,457.460388 850.532959,453.673065 
	C842.453979,449.892456 835.483643,444.515381 828.214172,438.317535 
M801.493774,344.943939 
	C802.583374,344.539795 803.683960,344.162720 804.760803,343.727051 
	C811.018494,341.195343 811.531738,339.300232 807.397278,333.838654 
	C806.699280,332.916534 805.841858,332.115326 805.060547,331.256073 
	C794.484619,319.625031 772.723755,321.939850 759.851074,330.026611 
	C767.219299,334.892517 773.996643,340.161926 777.930298,348.185272 
	C778.725830,349.807922 780.350220,349.723877 781.881958,349.443146 
	C788.231018,348.279541 794.690979,347.610992 801.493774,344.943939 
M883.295349,273.173920 
	C880.055054,271.618683 876.522583,268.474152 873.147217,271.171753 
	C865.376770,277.381714 858.689148,284.747101 852.603210,293.361298 
	C857.763672,295.272461 862.708984,296.148499 866.755005,299.305664 
	C871.479187,302.991913 874.436646,302.553986 878.121094,297.716797 
	C881.143433,293.748901 883.796326,289.495605 886.542969,285.322784 
	C890.241882,279.703278 889.678284,277.249756 883.295349,273.173920 
M851.718872,319.081818 
	C853.885010,316.031403 852.406494,313.547211 850.084412,311.720306 
	C846.298462,308.741577 842.838379,304.328918 837.070312,306.375305 
	C830.676392,308.643768 824.794922,312.212433 818.106506,313.801392 
	C815.148743,314.504059 812.306885,315.694580 808.268799,317.046478 
	C816.212891,319.508636 822.167725,322.685211 825.819824,328.914459 
	C828.405762,333.325165 831.834351,333.815033 835.893982,331.379272 
	C841.448303,328.046600 846.955750,324.614807 851.718872,319.081818 
M884.522400,229.014862 
	C883.333923,229.684845 882.088928,230.512177 881.825806,231.835266 
	C880.887756,236.551208 880.090027,241.298050 879.371582,246.053192 
	C879.096436,247.874054 880.562500,248.672180 881.955078,249.312775 
	C888.137939,252.156952 894.382202,254.891602 899.325562,260.411102 
	C903.919617,252.784500 903.670776,244.964966 903.656006,237.184265 
	C903.634399,225.822815 900.578125,223.614639 889.344360,226.948181 
	C887.917053,227.371750 886.567993,228.059052 884.522400,229.014862 
M872.002319,191.504196 
	C865.289673,201.495926 865.267029,201.512375 872.020630,210.798660 
	C872.867249,211.962814 872.930786,213.719025 874.880859,214.441193 
	C882.932007,211.438431 890.925720,207.306503 900.740723,207.648163 
	C894.649475,200.357712 888.631653,194.199661 880.819031,190.114960 
	C877.940857,188.610138 874.887817,187.458008 872.002319,191.504196 
M164.808945,450.860687 
	C158.719742,444.335907 149.510406,443.076538 142.776108,437.564972 
	C146.297302,445.193909 149.079025,453.149567 155.212524,459.023438 
	C157.685791,461.392059 160.858612,463.996918 164.392258,461.191223 
	C167.724625,458.545441 167.460815,454.903381 164.808945,450.860687 
z"/>
<path fill="#000000" opacity="1.000000" stroke="none" 
	d="
M211.459396,377.563477 
	C221.374359,363.871765 240.913406,347.608032 263.821747,352.012756 
	C257.718475,367.160858 244.952927,376.669891 233.498047,387.291321 
	C230.349716,390.210541 226.544876,392.106506 222.136368,391.469879 
	C214.372482,390.348785 208.030212,392.564636 203.050232,398.666382 
	C202.448563,399.403564 201.745865,400.221832 200.259598,399.906036 
	C200.596283,394.903168 201.290451,390.346680 205.601456,386.617706 
	C208.124481,384.435394 209.422287,380.836609 211.459396,377.563477 
M226.610718,371.107269 
	C225.092163,372.395325 223.454117,373.569092 222.085342,375.000366 
	C220.380051,376.783508 219.495438,378.973969 220.704559,381.388947 
	C221.833710,383.644104 224.035370,383.913879 226.275696,383.940277 
	C229.396072,383.977020 232.103119,382.619568 234.780258,381.295868 
	C238.955719,379.231323 239.969330,374.929474 237.569870,370.303040 
	C235.026886,365.399872 231.922195,367.853699 228.865845,369.592316 
	C228.288071,369.920990 227.749420,370.318451 226.610718,371.107269 
z"/>
<path fill="#000000" opacity="1.000000" stroke="none" 
	d="
M286.153809,410.142639 
	C298.208099,393.588257 297.525299,375.664337 293.259094,357.285950 
	C292.622681,354.544342 291.779541,351.850800 291.051666,349.129791 
	C291.020233,349.012268 291.186035,348.842041 291.271271,348.674042 
	C292.238129,348.077881 292.789154,348.844818 293.289520,349.417206 
	C302.306244,359.731598 308.626892,371.356049 310.658325,385.085693 
	C310.954376,387.086761 311.635834,389.011932 309.464142,390.464478 
	C308.998871,390.775635 308.581604,391.546661 308.580475,392.106750 
	C308.553162,405.530640 299.616577,412.086426 289.356934,418.130463 
	C283.395874,421.642181 277.200531,424.233856 270.706421,426.311676 
	C269.246704,426.778687 267.706299,427.991577 265.622284,426.207489 
	C273.344635,421.961548 280.670685,417.459717 286.153809,410.142639 
z"/>
<path fill="#000000" opacity="1.000000" stroke="none" 
	d="
M326.100769,300.114441 
	C330.189484,295.953827 333.712891,291.636932 339.019348,289.546082 
	C345.406647,287.029419 348.023407,288.842255 348.345367,295.600586 
	C348.899323,307.228973 346.514526,318.200470 340.374115,328.042297 
	C337.544434,332.577698 334.469696,338.071198 326.567841,335.765930 
	C330.132690,331.313629 331.340332,326.199127 332.482208,321.079407 
	C333.297882,317.422211 332.055328,315.446594 327.957520,315.275848 
	C322.255127,315.038239 317.480408,316.580597 313.770325,321.068817 
	C312.877014,322.149475 311.816284,323.903473 310.177124,322.344574 
	C308.808716,321.043152 309.784851,319.554779 310.782837,318.360168 
	C315.798615,312.356293 320.834045,306.368774 326.100769,300.114441 
z"/>
<path fill="#000000" opacity="1.000000" stroke="none" 
	d="
M261.709290,401.487122 
	C253.735077,404.358521 245.950912,406.054047 237.558853,404.413483 
	C258.599487,393.627441 272.318207,377.142792 278.321106,352.755676 
	C281.628357,359.934753 282.891235,366.198395 282.151794,372.455994 
	C281.445709,378.430725 281.226501,384.886444 277.683777,390.032013 
	C273.904572,395.521118 267.719177,398.210785 261.709290,401.487122 
z"/>
<path fill="#000000" opacity="1.000000" stroke="none" 
	d="
M215.035507,327.951691 
	C219.403290,325.473541 224.725357,326.190826 228.165466,321.033630 
	C229.295807,325.923004 228.272949,329.262268 225.240433,330.790802 
	C218.045044,334.417450 212.680405,339.923157 207.641968,345.932465 
	C207.258987,346.389221 206.593018,346.608704 206.358185,346.753601 
	C204.524475,346.698120 206.008652,344.864746 204.447861,344.643951 
	C205.014282,353.822388 196.814880,357.265442 191.882751,363.289856 
	C189.581299,362.409851 189.347153,359.894562 189.622742,357.765350 
	C190.460068,351.296509 191.432709,344.889252 197.166824,340.355652 
	C202.781830,335.916260 208.488739,331.663757 215.035507,327.951691 
z"/>
<path fill="#000000" opacity="1.000000" stroke="none" 
	d="
M229.362762,429.344696 
	C222.677689,431.845428 218.362839,438.090790 211.105591,438.734955 
	C209.981094,438.834778 208.903915,439.481720 207.185989,438.252106 
	C212.994965,433.589111 218.761887,428.916229 225.546585,426.820526 
	C231.469727,424.990936 237.590042,423.951447 242.949051,420.420654 
	C240.427246,426.357269 234.948883,427.600647 229.362762,429.344696 
z"/>
<path fill="#000000" opacity="1.000000" stroke="none" 
	d="
M239.092361,436.351501 
	C233.968140,439.747955 228.731567,442.201843 223.598770,444.882721 
	C217.964127,447.825684 211.956573,447.461700 205.890335,448.160858 
	C209.820679,444.851654 214.313797,441.571930 219.215576,441.100311 
	C226.466476,440.402649 232.622742,437.865723 238.580841,434.142151 
	C239.483994,433.577698 240.481445,432.750763 241.782318,433.417969 
	C241.908142,435.169373 240.230499,435.314972 239.092361,436.351501 
z"/>
<path fill="#000000" opacity="1.000000" stroke="none" 
	d="
M443.493469,411.866425 
	C451.863708,448.725037 418.961182,473.722351 396.457367,472.732239 
	C395.175964,470.699402 396.557587,468.934265 397.178162,467.149902 
	C402.301514,452.418457 408.695557,438.056702 411.050415,422.499237 
	C413.157776,408.576630 414.838959,394.588867 416.628967,380.619690 
	C416.906830,378.451172 417.377228,376.395386 418.736237,373.407471 
	C429.988434,384.548798 439.468414,396.124451 443.493469,411.866425 
z"/>
<path fill="#000000" opacity="1.000000" stroke="none" 
	d="
M540.217285,406.878967 
	C549.182800,427.878326 557.932678,448.556549 566.876343,469.150543 
	C568.648071,473.230164 568.321045,474.949219 563.415283,475.702209 
	C555.058472,476.984894 546.796326,478.941010 538.547974,480.846375 
	C534.935120,481.680939 533.055176,480.820007 533.039551,476.934174 
	C532.929077,449.473145 532.812622,422.012085 532.719971,394.550995 
	C532.718384,394.092346 532.990051,393.632782 533.306458,392.625122 
	C536.714600,397.010254 537.832886,402.057220 540.217285,406.878967 
z"/>
<path fill="#000000" opacity="1.000000" stroke="none" 
	d="
M835.323242,519.270813 
	C833.604736,519.763123 832.298035,520.752991 830.108521,519.701294 
	C834.206360,514.851624 837.858948,510.008972 840.930115,504.734741 
	C845.303284,497.224823 847.337708,489.504547 844.999023,480.882812 
	C844.584778,479.355499 844.647705,477.507874 845.081360,475.975494 
	C846.676086,470.341370 851.000671,469.052643 854.902771,473.323944 
	C858.972656,477.778931 863.317383,482.365479 859.597656,489.453125 
	C858.564941,491.420898 860.486267,493.994629 859.592102,496.615326 
	C856.481628,505.730957 849.384033,511.115906 841.980713,516.237854 
	C840.100037,517.539001 837.782471,518.208496 835.323242,519.270813 
z"/>
</svg>