<svg version="1.1" id="Layer_1" xmlns="http://www.w3.org/2000/svg" xmlns:xlink="http://www.w3.org/1999/xlink" x="0px" y="0px"
	 width="100%" viewBox="0 0 610 504" enable-background="new 0 0 610 504" xml:space="preserve">
<path fill="#FFFFFF" opacity="1.000000" stroke="none" 
	d="
M352.000000,505.000000 
	C234.692871,505.000000 117.885757,505.000000 1.039318,505.000000 
	C1.039318,337.063904 1.039318,169.127808 1.039318,1.095854 
	C204.223770,1.095854 407.447601,1.095854 610.835693,1.095854 
	C610.835693,168.999878 610.835693,336.999908 610.835693,505.000000 
	C524.794495,505.000000 438.647247,505.000000 352.000000,505.000000 
M226.711548,342.354462 
	C227.803772,346.096069 229.746750,349.817749 229.834808,353.582855 
	C230.146957,366.929321 228.981201,380.152252 223.310150,392.542694 
	C219.511581,400.842010 215.571960,409.077332 211.822845,417.398682 
	C208.361191,425.081940 204.620804,432.684021 201.832596,440.613495 
	C199.202271,448.093994 200.626419,451.650330 206.695084,454.074005 
	C213.290192,456.707886 220.074753,459.147217 227.001007,460.607452 
	C237.756760,462.875031 245.179016,458.651215 246.890381,449.979919 
	C250.422836,432.081299 254.292068,414.223267 256.960175,396.191345 
	C258.205963,387.771637 261.847198,382.283661 268.786255,377.937988 
	C276.809784,372.913239 283.263641,366.389771 286.454224,357.028717 
	C290.605804,344.847992 292.154175,332.362213 290.737396,319.670685 
	C288.994934,304.061249 281.917847,296.278656 266.603668,292.420563 
	C254.153885,289.284058 241.916931,291.496033 229.624298,294.098175 
	C224.023193,295.283783 221.413910,298.330627 219.964478,303.400787 
	C218.548935,308.352325 216.837891,313.224518 215.117203,318.082184 
	C213.564209,322.466461 213.568420,326.522919 216.703094,330.542969 
	C216.480377,330.792877 216.208511,330.965424 215.168030,330.941864 
	C213.054337,330.026398 210.978256,328.429565 208.820602,328.310425 
	C198.033524,327.714905 187.226730,327.411560 176.423065,327.222504 
	C173.302628,327.167908 170.169571,327.833496 167.042297,328.168915 
	C166.972977,327.766998 166.903671,327.365051 166.834366,326.963135 
	C168.994492,326.311188 171.120056,325.491333 173.321121,325.038177 
	C180.455994,323.569214 187.647522,322.367371 194.763229,320.815125 
	C203.863434,318.829895 209.262253,306.529968 205.878647,301.140533 
	C202.290024,295.424561 197.320694,291.321899 190.221466,290.987457 
	C182.772614,290.636505 175.307266,290.652496 167.851959,290.417877 
	C154.717392,290.004608 141.580719,289.100128 128.453278,289.232056 
	C120.879272,289.308167 113.200096,290.471802 105.791634,292.138733 
	C98.737984,293.725830 95.163040,299.394440 96.808556,306.498352 
	C99.007286,315.990540 101.672791,325.466125 105.204323,334.533447 
	C109.047585,344.401154 113.730743,354.000519 118.791862,363.312378 
	C121.683617,368.632874 126.513512,373.045532 133.090973,372.888855 
	C140.666992,372.708374 148.366180,372.072968 155.736420,370.412476 
	C163.618515,368.636597 171.179504,365.435577 179.032089,363.032928 
	C179.032089,363.032928 179.184647,363.208282 179.073181,363.885620 
	C178.484299,364.681915 177.966171,365.544037 177.295807,366.264526 
	C168.467651,375.752625 159.611755,385.214905 150.776169,394.696106 
	C145.597214,400.253571 144.140060,407.253235 148.139618,411.252716 
	C155.411072,418.523987 162.819702,425.758087 170.872040,432.120605 
	C179.017288,438.556519 188.680496,437.674774 195.400085,429.761688 
	C201.148773,422.991882 206.381058,415.509583 210.419724,407.614929 
	C220.904541,387.119629 230.012680,366.095093 225.470184,342.002594 
	C225.693924,341.983459 225.917679,341.964355 226.711548,342.354462 
M85.266136,239.795029 
	C83.078896,252.565475 80.626991,265.291046 82.952850,278.371643 
	C83.581215,281.905609 84.978355,283.082611 88.531059,282.959534 
	C100.837585,282.533142 113.152634,282.291748 125.466400,282.146698 
	C160.219849,281.737305 194.974380,281.420746 229.728271,281.048431 
	C258.662720,280.738434 287.596771,280.393921 316.531189,280.077972 
	C347.167480,279.743439 377.803406,279.358398 408.440460,279.119934 
	C432.934052,278.929291 457.429016,278.915375 481.923431,278.843170 
	C491.815399,278.813995 501.707520,278.838379 511.767426,278.838379 
	C511.767426,268.037811 512.406738,258.618042 511.637939,249.314636 
	C509.890503,228.168533 505.358917,207.763763 495.873199,188.419495 
	C480.801514,157.683807 461.437683,130.445709 434.942383,108.534019 
	C393.933685,74.619736 346.013519,59.164555 293.596619,57.406250 
	C260.934052,56.310596 230.783600,67.320892 202.058838,81.877541 
	C180.234573,92.937256 161.253693,107.922012 143.903351,125.296509 
	C112.196663,157.047333 94.627762,195.766846 85.266136,239.795029 
M302.839874,437.148346 
	C303.153290,431.714874 303.466675,426.281433 303.780090,420.847961 
	C304.259277,420.806854 304.738495,420.765717 305.217712,420.724609 
	C306.267059,423.298584 307.698547,425.786835 308.298584,428.461609 
	C310.694489,439.141785 312.908051,449.864807 315.040070,460.601593 
	C316.687042,468.895660 319.174866,471.501434 327.384918,471.000916 
	C335.975311,470.477264 344.556244,469.348022 353.057404,467.967072 
	C358.868896,467.023010 362.004700,462.410339 360.831970,457.770782 
	C355.299286,435.882507 349.828125,413.978271 344.192749,392.116425 
	C336.529816,362.388947 328.752472,332.690857 320.945221,303.000916 
	C320.640839,301.843323 319.717255,300.641541 318.746643,299.899017 
	C311.262970,294.174164 303.695801,295.515472 295.909821,299.499786 
	C292.191376,301.402649 291.433014,303.949951 292.364410,307.660614 
	C295.280151,319.277283 297.430450,330.925507 296.201843,343.064362 
	C294.424194,360.627625 286.414215,374.198334 271.548553,383.682098 
	C264.223907,388.354919 259.946564,394.316376 259.735962,403.610809 
	C259.534241,412.514008 257.579437,421.373322 256.469147,430.261169 
	C255.296890,439.644745 253.853348,449.014893 253.213806,458.437408 
	C252.779022,464.843292 255.224808,467.658264 261.440491,468.989532 
	C268.728058,470.550323 276.082916,472.023590 283.485718,472.768829 
	C296.050079,474.033691 302.013855,469.428284 302.839478,458.417999 
	C303.048767,455.626862 302.477661,452.786072 302.466400,449.967285 
	C302.450531,446.001648 302.622498,442.035217 302.839874,437.148346 
M398.479218,382.781433 
	C395.979584,384.705902 393.471283,386.619263 390.982544,388.557709 
	C387.654663,391.149689 383.908539,390.637360 381.598938,387.116394 
	C380.512146,385.459625 379.418060,383.717590 378.800720,381.857086 
	C373.568634,366.089630 368.395020,350.302002 363.356995,334.471741 
	C362.754730,332.579346 363.068329,330.395508 362.957428,328.346741 
	C363.449402,328.096741 363.941376,327.846710 364.433380,327.596710 
	C366.511230,330.179352 368.853027,332.597198 370.596222,335.388824 
	C372.521362,338.471832 373.991302,341.855408 375.489655,345.184540 
	C377.363586,349.348145 380.709167,350.742706 384.865570,349.994415 
	C388.769012,349.291626 392.696625,348.364197 396.395874,346.961487 
	C403.731140,344.180176 407.168457,339.187714 405.628510,333.568298 
	C403.881653,327.193665 401.832123,320.891113 399.656097,314.647186 
	C394.589478,300.108856 384.481262,291.617523 369.088928,289.584991 
	C357.865112,288.102875 346.842743,289.312469 336.013550,292.247437 
	C325.462219,295.107086 323.692322,298.204559 326.588409,308.815094 
	C332.924011,332.027435 339.625977,355.140991 345.818970,378.390656 
	C350.177673,394.754181 353.700287,411.340790 358.080353,427.698151 
	C360.218842,435.684265 362.966583,443.597107 366.349670,451.134125 
	C369.553802,458.272491 374.795654,460.533569 382.410553,458.515198 
	C388.136841,456.997406 394.025574,455.095551 399.013275,452.020477 
	C406.605560,447.339600 413.565552,441.604828 420.636841,436.115082 
	C427.737915,430.602173 428.587036,425.987396 424.864746,417.790894 
	C421.980225,411.439270 419.602661,404.852692 416.603638,398.559326 
	C414.261261,393.643951 411.520538,388.882660 408.562531,384.307861 
	C406.264526,380.753754 402.899506,379.848328 398.479218,382.781433 
M484.893921,358.164764 
	C484.792603,353.375122 484.691284,348.585480 484.560608,342.408386 
	C489.460938,337.612061 492.244812,329.711945 494.770844,321.569641 
	C499.968628,304.815430 495.284882,291.080078 475.720337,288.332062 
	C452.264893,285.037537 428.981384,287.190704 406.008484,292.635071 
	C399.960236,294.068420 398.640594,296.738434 400.125946,302.922485 
	C400.548737,304.682678 401.464264,306.321625 402.119019,308.029480 
	C404.855042,315.165924 407.785156,322.236816 410.249023,329.466370 
	C412.865784,337.144531 416.061615,339.179840 424.141937,337.478333 
	C426.530823,336.975311 428.918945,336.468689 431.307404,335.963715 
	C431.455902,336.393311 431.604401,336.822906 431.752899,337.252502 
	C429.303925,338.866669 426.842834,340.462860 424.408325,342.098541 
	C418.087097,346.345551 411.651642,350.438019 405.511383,354.933105 
	C401.932434,357.553101 400.886597,361.648193 402.517059,365.702515 
	C404.555420,370.771240 406.955505,375.754181 409.754150,380.443054 
	C413.663879,386.993317 417.367371,387.700470 423.749634,383.394348 
	C429.809265,379.305908 435.629089,374.863647 441.625671,370.679169 
	C443.272400,369.530121 445.174805,368.747528 446.959869,367.796783 
	C447.218628,368.134247 447.477386,368.471680 447.736115,368.809143 
	C446.759033,370.056091 445.940735,371.480591 444.778259,372.520294 
	C438.587097,378.057861 432.425476,383.639557 426.017914,388.919891 
	C422.290985,391.991241 421.176514,395.314972 422.785400,399.890381 
	C424.207703,403.935181 425.188446,408.136108 426.343475,412.273895 
	C428.986389,421.741730 434.689423,423.334290 441.969482,416.621796 
	C442.703735,415.944794 443.449615,415.269592 444.104218,414.518677 
	C451.965942,405.500366 460.407806,396.907776 467.486511,387.310333 
	C474.027924,378.441345 481.955414,370.203156 484.893921,358.164764 
z"/>
<path fill="#82CBFA" opacity="1.000000" stroke="none" 
	d="
M85.398964,239.386749 
	C94.627762,195.766846 112.196663,157.047333 143.903351,125.296509 
	C161.253693,107.922012 180.234573,92.937256 202.058838,81.877541 
	C230.783600,67.320892 260.934052,56.310596 293.596619,57.406250 
	C346.013519,59.164555 393.933685,74.619736 434.942383,108.534019 
	C461.437683,130.445709 480.801514,157.683807 495.873199,188.419495 
	C505.358917,207.763763 509.890503,228.168533 511.637939,249.314636 
	C512.406738,258.618042 511.767426,268.037811 511.767426,278.838379 
	C501.707520,278.838379 491.815399,278.813995 481.923431,278.843170 
	C457.429016,278.915375 432.934052,278.929291 408.440460,279.119934 
	C377.803406,279.358398 347.167480,279.743439 316.531189,280.077972 
	C287.596771,280.393921 258.662720,280.738434 229.728271,281.048431 
	C194.974380,281.420746 160.219849,281.737305 125.466400,282.146698 
	C113.152634,282.291748 100.837585,282.533142 88.531059,282.959534 
	C84.978355,283.082611 83.581215,281.905609 82.952850,278.371643 
	C80.626991,265.291046 83.078896,252.565475 85.398964,239.386749 
M330.719421,171.384628 
	C324.640808,170.542068 318.575287,169.582138 312.478516,168.902466 
	C309.012634,168.516083 307.056732,167.330460 306.863190,163.423172 
	C306.420013,154.476273 305.504852,145.553818 304.967865,136.610229 
	C304.379242,126.807289 304.469635,126.850548 314.357208,127.034157 
	C321.143066,127.160156 327.941803,127.360657 334.715271,127.071007 
	C338.323700,126.916710 340.304230,124.746086 341.223175,120.780304 
	C344.052155,108.572006 339.805603,97.892235 335.196777,87.095505 
	C332.989075,81.923637 329.611481,78.831139 324.097076,77.412361 
	C306.378723,72.853699 288.702423,72.512688 270.814240,76.471603 
	C265.113861,77.733192 262.848541,81.032356 263.032288,86.224548 
	C263.284149,93.341248 263.673828,100.493004 264.674194,107.534584 
	C266.492981,120.336731 269.115631,133.027145 270.833801,145.840485 
	C273.040466,162.296341 274.649506,178.831696 276.585449,195.324661 
	C278.017426,207.524338 279.426971,219.729355 281.100433,231.897064 
	C282.229767,240.108185 283.690704,248.279388 285.231506,256.425262 
	C285.809296,259.479858 287.260620,262.098022 291.129730,262.038452 
	C302.687561,261.860413 314.264923,262.085022 325.796997,261.458649 
	C331.673737,261.139435 336.242859,257.374023 339.818176,252.709030 
	C346.465393,244.035950 343.238983,234.171768 332.750671,231.752914 
	C326.135681,230.227341 319.341675,229.481674 312.717834,227.987717 
	C311.301544,227.668274 309.271210,225.649063 309.243744,224.375793 
	C309.136810,219.419861 309.793671,214.452301 310.024780,209.482498 
	C310.179901,206.146866 311.640076,205.029068 315.055664,205.011459 
	C320.854065,204.981552 326.655212,204.373367 332.443451,203.872009 
	C336.323456,203.535934 339.442688,201.637268 339.552429,197.522659 
	C339.700684,191.965164 339.223083,186.375824 338.756287,180.821808 
	C338.373749,176.270340 335.914459,173.119492 330.719421,171.384628 
M414.299225,155.876846 
	C424.732300,146.408020 427.620544,129.002533 417.618317,116.717018 
	C406.325958,102.846870 391.613922,94.031952 375.602722,87.171066 
	C369.612396,84.604179 362.989258,83.274940 356.520569,82.157806 
	C352.929993,81.537720 350.544525,83.233955 350.844208,88.024391 
	C351.602386,100.142754 351.904572,112.302017 351.912750,124.445229 
	C351.914551,127.107948 350.682709,130.807678 348.717010,132.228546 
	C344.044861,135.605682 342.524902,139.691513 342.858765,145.093475 
	C343.094757,148.912064 342.752045,152.768646 343.033661,156.581253 
	C343.173553,158.476013 343.678864,160.665466 344.802856,162.112823 
	C351.268188,170.438309 351.984467,179.834595 351.399200,189.930710 
	C350.811401,200.070251 349.238953,208.915421 338.723755,213.786392 
	C335.360626,215.344299 336.621765,219.099106 339.658691,221.301697 
	C343.163574,223.843704 346.909515,226.893875 348.820129,230.612564 
	C352.414520,237.608414 353.802460,245.434433 352.568237,253.388321 
	C352.123016,256.257477 353.218719,257.380249 355.722931,257.935455 
	C362.421906,259.420685 369.768646,255.274261 371.995056,248.825500 
	C376.300598,236.354599 376.089020,223.344757 376.736359,210.429276 
	C376.792511,209.310013 377.301605,208.213440 377.600281,207.106339 
	C378.047729,207.143829 378.495178,207.181320 378.942596,207.218796 
	C383.476837,218.386795 388.127655,229.497772 388.982941,241.815857 
	C389.245880,245.603516 389.898071,249.415146 390.850342,253.091934 
	C392.258484,258.528992 395.847687,260.610748 401.370972,259.673767 
	C403.172974,259.368073 404.962738,258.985138 406.750946,258.603912 
	C415.911469,256.651062 417.766968,253.644363 415.341370,244.663177 
	C412.395355,233.754929 409.587463,222.806427 406.445648,211.954697 
	C401.744263,195.716248 396.803894,179.546982 392.163879,164.013565 
	C399.039734,161.527878 406.352783,158.884125 414.299225,155.876846 
M253.527573,95.292557 
	C252.377380,92.897804 251.506012,90.302628 249.979187,88.178596 
	C248.957703,86.757545 247.053207,85.178970 245.461197,85.086014 
	C233.069366,84.362419 222.011261,87.965805 212.306396,95.844971 
	C209.932892,97.771957 209.131760,99.554367 209.794662,102.631157 
	C212.797363,116.568100 215.737823,130.525894 218.223251,144.560745 
	C218.735413,147.452927 218.037888,151.264709 216.426437,153.664581 
	C213.922867,157.393051 210.631943,156.428879 209.212097,152.149246 
	C205.919266,142.224121 202.618378,132.301590 199.359390,122.365341 
	C196.352509,113.197731 195.251297,113.004013 187.423538,118.605362 
	C183.999039,121.055855 184.860001,123.498718 185.904434,126.392876 
	C189.514847,136.397461 192.389603,146.546021 187.408127,156.854736 
	C183.761963,164.400177 183.561676,171.404251 187.053406,179.250824 
	C192.779602,192.118698 197.157150,205.586578 202.879471,218.456375 
	C206.030518,225.543274 211.032547,231.783554 214.701920,238.670929 
	C217.712234,244.321259 219.568726,250.312714 216.347534,256.793640 
	C215.510040,258.478638 215.234894,262.244232 215.847641,262.521515 
	C217.940277,263.468567 220.543961,263.486786 222.951889,263.481873 
	C225.494080,263.476685 228.031372,262.976959 230.578506,262.811737 
	C232.313614,262.699158 234.061920,262.790192 236.771072,262.790192 
	C235.250320,254.253616 234.244217,246.530899 232.458572,238.992874 
	C228.057983,220.416046 223.287628,201.926926 218.705643,183.392731 
	C218.310318,181.793625 218.022552,180.123352 218.009033,178.483459 
	C217.978165,174.733307 222.209824,170.650497 226.473404,170.074310 
	C230.664200,169.507950 231.317398,172.643127 232.273087,175.517593 
	C233.162643,178.193085 234.257736,180.808197 235.011597,183.519608 
	C241.641937,207.367203 248.318527,231.202850 254.756973,255.102509 
	C257.353546,264.740967 266.929108,267.634552 275.311859,264.982513 
	C275.032471,261.344360 275.014709,257.516296 274.386780,253.791107 
	C273.477325,248.395950 271.874451,243.115631 271.008606,237.715561 
	C267.647736,216.754990 264.080902,195.816345 261.320648,174.773804 
	C258.732361,155.042526 255.041504,135.402542 255.696838,115.310745 
	C255.905350,108.918152 254.478745,102.472214 253.527573,95.292557 
M197.574265,260.086456 
	C199.068405,258.309113 200.780212,256.665070 201.979553,254.707153 
	C202.768784,253.418747 203.583160,251.345383 203.081009,250.191544 
	C198.645081,239.998322 194.192673,229.793579 189.200226,219.866272 
	C183.759659,209.047958 177.300934,198.725311 172.197769,187.762222 
	C170.314240,183.715805 169.889038,178.228836 170.790222,173.804565 
	C172.737076,164.246796 176.015900,154.963654 178.644730,145.538849 
	C179.208481,143.517731 180.185394,141.011398 179.488129,139.352142 
	C177.437286,134.471878 175.036850,129.630783 172.030945,125.288208 
	C168.634186,120.380981 165.145599,119.772514 160.727890,123.635574 
	C155.004257,128.640625 149.687958,134.194138 144.715576,139.959381 
	C132.277328,154.380920 121.307083,169.841644 114.517410,187.807388 
	C107.524292,206.311447 101.222549,225.044861 99.890450,245.013763 
	C99.462128,251.434418 93.696175,259.592712 107.062286,261.888855 
	C104.453972,262.823975 103.504547,263.164368 102.236732,263.618896 
	C108.009636,268.504730 114.877357,267.298889 121.115852,267.870239 
	C133.560974,269.009979 133.594223,268.663452 136.300217,256.508087 
	C136.624786,255.050125 136.935928,253.588913 137.231125,252.124741 
	C139.489090,240.925415 141.620621,229.697830 144.122711,218.553391 
	C144.509476,216.830750 146.587677,215.487854 147.883636,213.969330 
	C149.287537,215.414261 151.516724,216.641968 151.963348,218.338867 
	C155.215851,230.696136 162.550629,240.829605 169.461502,251.171768 
	C172.772430,256.126587 176.636795,260.715729 180.339767,265.399902 
	C180.889893,266.095825 182.174194,267.007690 182.710052,266.794067 
	C187.547241,264.865875 192.293259,262.708923 197.574265,260.086456 
M444.000305,231.847763 
	C439.145813,232.808273 434.176422,233.396133 429.473114,234.846848 
	C425.689728,236.013794 424.222412,238.774780 425.769684,243.107361 
	C427.031464,246.640610 427.804779,250.552734 427.791901,254.293396 
	C427.766571,261.614624 428.583557,262.881287 435.979523,264.055054 
	C448.952148,266.113861 461.913422,265.304810 474.601044,262.636536 
	C481.606323,261.163239 489.576324,258.843079 491.595367,250.561722 
	C492.882721,245.281464 492.271576,239.440018 491.940399,233.884232 
	C491.278809,222.783951 490.446167,211.591736 477.654602,206.797867 
	C477.468048,206.727966 477.447296,206.215683 477.155640,205.306534 
	C483.938324,202.673691 482.507233,197.306427 480.809113,192.123810 
	C474.566895,173.072708 464.637451,155.963959 451.979797,140.572220 
	C447.570984,135.211136 441.416748,131.285446 436.059662,126.704208 
	C435.472748,126.886826 434.885834,127.069450 434.298920,127.252068 
	C439.567627,139.807663 432.113983,149.639969 427.899597,160.664597 
	C434.136292,163.934372 440.229095,166.949280 446.142212,170.282974 
	C451.296936,173.189133 455.933929,176.519623 456.243958,183.439819 
	C456.487854,188.884521 455.093048,190.155594 450.009613,188.000916 
	C438.679810,183.198700 427.395477,178.287109 416.018951,173.598785 
	C413.608307,172.605362 410.882904,172.375656 408.046936,171.736481 
	C408.046936,173.967453 407.751495,175.219147 408.092590,176.262833 
	C411.547455,186.834473 414.900696,197.449005 418.792480,207.860840 
	C419.675293,210.222626 422.222717,212.374771 424.531586,213.713089 
	C431.289551,217.630249 438.352875,221.016632 445.207733,224.773087 
	C447.066132,225.791489 448.609711,227.384354 451.257202,229.468948 
	C448.160645,230.568954 446.496582,231.160080 444.000305,231.847763 
z"/>
<path fill="#80CAFA" opacity="1.000000" stroke="none" 
	d="
M224.796341,342.059692 
	C230.012680,366.095093 220.904541,387.119629 210.419724,407.614929 
	C206.381058,415.509583 201.148773,422.991882 195.400085,429.761688 
	C188.680496,437.674774 179.017288,438.556519 170.872040,432.120605 
	C162.819702,425.758087 155.411072,418.523987 148.139618,411.252716 
	C144.140060,407.253235 145.597214,400.253571 150.776169,394.696106 
	C159.611755,385.214905 168.467651,375.752625 177.295807,366.264526 
	C177.966171,365.544037 178.484299,364.681915 179.362198,363.495544 
	C179.887726,362.908203 180.124237,362.710876 180.360764,362.513580 
	C179.867386,362.627899 179.374023,362.742249 178.880646,362.856598 
	C171.179504,365.435577 163.618515,368.636597 155.736420,370.412476 
	C148.366180,372.072968 140.666992,372.708374 133.090973,372.888855 
	C126.513512,373.045532 121.683617,368.632874 118.791862,363.312378 
	C113.730743,354.000519 109.047585,344.401154 105.204323,334.533447 
	C101.672791,325.466125 99.007286,315.990540 96.808556,306.498352 
	C95.163040,299.394440 98.737984,293.725830 105.791634,292.138733 
	C113.200096,290.471802 120.879272,289.308167 128.453278,289.232056 
	C141.580719,289.100128 154.717392,290.004608 167.851959,290.417877 
	C175.307266,290.652496 182.772614,290.636505 190.221466,290.987457 
	C197.320694,291.321899 202.290024,295.424561 205.878647,301.140533 
	C209.262253,306.529968 203.863434,318.829895 194.763229,320.815125 
	C187.647522,322.367371 180.455994,323.569214 173.321121,325.038177 
	C171.120056,325.491333 168.994492,326.311188 166.834366,326.963135 
	C166.903671,327.365051 166.972977,327.766998 167.042297,328.168915 
	C170.169571,327.833496 173.302628,327.167908 176.423065,327.222504 
	C187.226730,327.411560 198.033524,327.714905 208.820602,328.310425 
	C210.978256,328.429565 213.054337,330.026398 215.706848,331.283997 
	C219.095901,335.104004 221.946121,338.581848 224.796341,342.059692 
z"/>
<path fill="#80CAFA" opacity="1.000000" stroke="none" 
	d="
M302.777008,437.608734 
	C302.622498,442.035217 302.450531,446.001648 302.466400,449.967285 
	C302.477661,452.786072 303.048767,455.626862 302.839478,458.417999 
	C302.013855,469.428284 296.050079,474.033691 283.485718,472.768829 
	C276.082916,472.023590 268.728058,470.550323 261.440491,468.989532 
	C255.224808,467.658264 252.779022,464.843292 253.213806,458.437408 
	C253.853348,449.014893 255.296890,439.644745 256.469147,430.261169 
	C257.579437,421.373322 259.534241,412.514008 259.735962,403.610809 
	C259.946564,394.316376 264.223907,388.354919 271.548553,383.682098 
	C286.414215,374.198334 294.424194,360.627625 296.201843,343.064362 
	C297.430450,330.925507 295.280151,319.277283 292.364410,307.660614 
	C291.433014,303.949951 292.191376,301.402649 295.909821,299.499786 
	C303.695801,295.515472 311.262970,294.174164 318.746643,299.899017 
	C319.717255,300.641541 320.640839,301.843323 320.945221,303.000916 
	C328.752472,332.690857 336.529816,362.388947 344.192749,392.116425 
	C349.828125,413.978271 355.299286,435.882507 360.831970,457.770782 
	C362.004700,462.410339 358.868896,467.023010 353.057404,467.967072 
	C344.556244,469.348022 335.975311,470.477264 327.384918,471.000916 
	C319.174866,471.501434 316.687042,468.895660 315.040070,460.601593 
	C312.908051,449.864807 310.694489,439.141785 308.298584,428.461609 
	C307.698547,425.786835 306.267059,423.298584 305.217712,420.724609 
	C304.738495,420.765717 304.259277,420.806854 303.780090,420.847961 
	C303.466675,426.281433 303.153290,431.714874 302.777008,437.608734 
z"/>
<path fill="#80CAFA" opacity="1.000000" stroke="none" 
	d="
M398.780579,382.551636 
	C402.899506,379.848328 406.264526,380.753754 408.562531,384.307861 
	C411.520538,388.882660 414.261261,393.643951 416.603638,398.559326 
	C419.602661,404.852692 421.980225,411.439270 424.864746,417.790894 
	C428.587036,425.987396 427.737915,430.602173 420.636841,436.115082 
	C413.565552,441.604828 406.605560,447.339600 399.013275,452.020477 
	C394.025574,455.095551 388.136841,456.997406 382.410553,458.515198 
	C374.795654,460.533569 369.553802,458.272491 366.349670,451.134125 
	C362.966583,443.597107 360.218842,435.684265 358.080353,427.698151 
	C353.700287,411.340790 350.177673,394.754181 345.818970,378.390656 
	C339.625977,355.140991 332.924011,332.027435 326.588409,308.815094 
	C323.692322,298.204559 325.462219,295.107086 336.013550,292.247437 
	C346.842743,289.312469 357.865112,288.102875 369.088928,289.584991 
	C384.481262,291.617523 394.589478,300.108856 399.656097,314.647186 
	C401.832123,320.891113 403.881653,327.193665 405.628510,333.568298 
	C407.168457,339.187714 403.731140,344.180176 396.395874,346.961487 
	C392.696625,348.364197 388.769012,349.291626 384.865570,349.994415 
	C380.709167,350.742706 377.363586,349.348145 375.489655,345.184540 
	C373.991302,341.855408 372.521362,338.471832 370.596222,335.388824 
	C368.853027,332.597198 366.511230,330.179352 364.433380,327.596710 
	C363.941376,327.846710 363.449402,328.096741 362.957428,328.346741 
	C363.068329,330.395508 362.754730,332.579346 363.356995,334.471741 
	C368.395020,350.302002 373.568634,366.089630 378.800720,381.857086 
	C379.418060,383.717590 380.512146,385.459625 381.598938,387.116394 
	C383.908539,390.637360 387.654663,391.149689 390.982544,388.557709 
	C393.471283,386.619263 395.979584,384.705902 398.780579,382.551636 
z"/>
<path fill="#80CAFA" opacity="1.000000" stroke="none" 
	d="
M216.938110,330.117981 
	C213.568420,326.522919 213.564209,322.466461 215.117203,318.082184 
	C216.837891,313.224518 218.548935,308.352325 219.964478,303.400787 
	C221.413910,298.330627 224.023193,295.283783 229.624298,294.098175 
	C241.916931,291.496033 254.153885,289.284058 266.603668,292.420563 
	C281.917847,296.278656 288.994934,304.061249 290.737396,319.670685 
	C292.154175,332.362213 290.605804,344.847992 286.454224,357.028717 
	C283.263641,366.389771 276.809784,372.913239 268.786255,377.937988 
	C261.847198,382.283661 258.205963,387.771637 256.960175,396.191345 
	C254.292068,414.223267 250.422836,432.081299 246.890381,449.979919 
	C245.179016,458.651215 237.756760,462.875031 227.001007,460.607452 
	C220.074753,459.147217 213.290192,456.707886 206.695084,454.074005 
	C200.626419,451.650330 199.202271,448.093994 201.832596,440.613495 
	C204.620804,432.684021 208.361191,425.081940 211.822845,417.398682 
	C215.571960,409.077332 219.511581,400.842010 223.310150,392.542694 
	C228.981201,380.152252 230.146957,366.929321 229.834808,353.582855 
	C229.746750,349.817749 227.803772,346.096069 226.364227,341.789886 
	C224.222031,336.516357 221.875778,332.258087 216.938110,330.117981 
z"/>
<path fill="#80CAFA" opacity="1.000000" stroke="none" 
	d="
M484.821503,358.568359 
	C481.955414,370.203156 474.027924,378.441345 467.486511,387.310333 
	C460.407806,396.907776 451.965942,405.500366 444.104218,414.518677 
	C443.449615,415.269592 442.703735,415.944794 441.969482,416.621796 
	C434.689423,423.334290 428.986389,421.741730 426.343475,412.273895 
	C425.188446,408.136108 424.207703,403.935181 422.785400,399.890381 
	C421.176514,395.314972 422.290985,391.991241 426.017914,388.919891 
	C432.425476,383.639557 438.587097,378.057861 444.778259,372.520294 
	C445.940735,371.480591 446.759033,370.056091 447.736115,368.809143 
	C447.477386,368.471680 447.218628,368.134247 446.959869,367.796783 
	C445.174805,368.747528 443.272400,369.530121 441.625671,370.679169 
	C435.629089,374.863647 429.809265,379.305908 423.749634,383.394348 
	C417.367371,387.700470 413.663879,386.993317 409.754150,380.443054 
	C406.955505,375.754181 404.555420,370.771240 402.517059,365.702515 
	C400.886597,361.648193 401.932434,357.553101 405.511383,354.933105 
	C411.651642,350.438019 418.087097,346.345551 424.408325,342.098541 
	C426.842834,340.462860 429.303925,338.866669 431.752899,337.252502 
	C431.604401,336.822906 431.455902,336.393311 431.307404,335.963715 
	C428.918945,336.468689 426.530823,336.975311 424.141937,337.478333 
	C416.061615,339.179840 412.865784,337.144531 410.249023,329.466370 
	C407.785156,322.236816 404.855042,315.165924 402.119019,308.029480 
	C401.464264,306.321625 400.548737,304.682678 400.125946,302.922485 
	C398.640594,296.738434 399.960236,294.068420 406.008484,292.635071 
	C428.981384,287.190704 452.264893,285.037537 475.720337,288.332062 
	C495.284882,291.080078 499.968628,304.815430 494.770844,321.569641 
	C492.244812,329.711945 489.460938,337.612061 484.560608,342.408386 
	C484.691284,348.585480 484.792603,353.375122 484.821503,358.568359 
z"/>
<path fill="#FDFEFF" opacity="1.000000" stroke="none" 
	d="
M216.820602,330.330475 
	C221.875778,332.258087 224.222031,336.516357 226.079163,341.585266 
	C225.917679,341.964355 225.693924,341.983459 225.133270,342.031128 
	C221.946121,338.581848 219.095901,335.104004 216.066589,331.343384 
	C216.208511,330.965424 216.480377,330.792877 216.820602,330.330475 
z"/>
<path fill="#FEFFFF" opacity="1.000000" stroke="none" 
	d="
M331.087585,171.541870 
	C335.914459,173.119492 338.373749,176.270340 338.756287,180.821808 
	C339.223083,186.375824 339.700684,191.965164 339.552429,197.522659 
	C339.442688,201.637268 336.323456,203.535934 332.443451,203.872009 
	C326.655212,204.373367 320.854065,204.981552 315.055664,205.011459 
	C311.640076,205.029068 310.179901,206.146866 310.024780,209.482498 
	C309.793671,214.452301 309.136810,219.419861 309.243744,224.375793 
	C309.271210,225.649063 311.301544,227.668274 312.717834,227.987717 
	C319.341675,229.481674 326.135681,230.227341 332.750671,231.752914 
	C343.238983,234.171768 346.465393,244.035950 339.818176,252.709030 
	C336.242859,257.374023 331.673737,261.139435 325.796997,261.458649 
	C314.264923,262.085022 302.687561,261.860413 291.129730,262.038452 
	C287.260620,262.098022 285.809296,259.479858 285.231506,256.425262 
	C283.690704,248.279388 282.229767,240.108185 281.100433,231.897064 
	C279.426971,219.729355 278.017426,207.524338 276.585449,195.324661 
	C274.649506,178.831696 273.040466,162.296341 270.833801,145.840485 
	C269.115631,133.027145 266.492981,120.336731 264.674194,107.534584 
	C263.673828,100.493004 263.284149,93.341248 263.032288,86.224548 
	C262.848541,81.032356 265.113861,77.733192 270.814240,76.471603 
	C288.702423,72.512688 306.378723,72.853699 324.097076,77.412361 
	C329.611481,78.831139 332.989075,81.923637 335.196777,87.095505 
	C339.805603,97.892235 344.052155,108.572006 341.223175,120.780304 
	C340.304230,124.746086 338.323700,126.916710 334.715271,127.071007 
	C327.941803,127.360657 321.143066,127.160156 314.357208,127.034157 
	C304.469635,126.850548 304.379242,126.807289 304.967865,136.610229 
	C305.504852,145.553818 306.420013,154.476273 306.863190,163.423172 
	C307.056732,167.330460 309.012634,168.516083 312.478516,168.902466 
	C318.575287,169.582138 324.640808,170.542068 331.087585,171.541870 
z"/>
<path fill="#FEFEFF" opacity="1.000000" stroke="none" 
	d="
M413.982544,156.058609 
	C406.352783,158.884125 399.039734,161.527878 392.163879,164.013565 
	C396.803894,179.546982 401.744263,195.716248 406.445648,211.954697 
	C409.587463,222.806427 412.395355,233.754929 415.341370,244.663177 
	C417.766968,253.644363 415.911469,256.651062 406.750946,258.603912 
	C404.962738,258.985138 403.172974,259.368073 401.370972,259.673767 
	C395.847687,260.610748 392.258484,258.528992 390.850342,253.091934 
	C389.898071,249.415146 389.245880,245.603516 388.982941,241.815857 
	C388.127655,229.497772 383.476837,218.386795 378.942596,207.218796 
	C378.495178,207.181320 378.047729,207.143829 377.600281,207.106339 
	C377.301605,208.213440 376.792511,209.310013 376.736359,210.429276 
	C376.089020,223.344757 376.300598,236.354599 371.995056,248.825500 
	C369.768646,255.274261 362.421906,259.420685 355.722931,257.935455 
	C353.218719,257.380249 352.123016,256.257477 352.568237,253.388321 
	C353.802460,245.434433 352.414520,237.608414 348.820129,230.612564 
	C346.909515,226.893875 343.163574,223.843704 339.658691,221.301697 
	C336.621765,219.099106 335.360626,215.344299 338.723755,213.786392 
	C349.238953,208.915421 350.811401,200.070251 351.399200,189.930710 
	C351.984467,179.834595 351.268188,170.438309 344.802856,162.112823 
	C343.678864,160.665466 343.173553,158.476013 343.033661,156.581253 
	C342.752045,152.768646 343.094757,148.912064 342.858765,145.093475 
	C342.524902,139.691513 344.044861,135.605682 348.717010,132.228546 
	C350.682709,130.807678 351.914551,127.107948 351.912750,124.445229 
	C351.904572,112.302017 351.602386,100.142754 350.844208,88.024391 
	C350.544525,83.233955 352.929993,81.537720 356.520569,82.157806 
	C362.989258,83.274940 369.612396,84.604179 375.602722,87.171066 
	C391.613922,94.031952 406.325958,102.846870 417.618317,116.717018 
	C427.620544,129.002533 424.732300,146.408020 413.982544,156.058609 
z"/>
<path fill="#FDFEFF" opacity="1.000000" stroke="none" 
	d="
M253.663971,95.671623 
	C254.478745,102.472214 255.905350,108.918152 255.696838,115.310745 
	C255.041504,135.402542 258.732361,155.042526 261.320648,174.773804 
	C264.080902,195.816345 267.647736,216.754990 271.008606,237.715561 
	C271.874451,243.115631 273.477325,248.395950 274.386780,253.791107 
	C275.014709,257.516296 275.032471,261.344360 275.311859,264.982513 
	C266.929108,267.634552 257.353546,264.740967 254.756973,255.102509 
	C248.318527,231.202850 241.641937,207.367203 235.011597,183.519608 
	C234.257736,180.808197 233.162643,178.193085 232.273087,175.517593 
	C231.317398,172.643127 230.664200,169.507950 226.473404,170.074310 
	C222.209824,170.650497 217.978165,174.733307 218.009033,178.483459 
	C218.022552,180.123352 218.310318,181.793625 218.705643,183.392731 
	C223.287628,201.926926 228.057983,220.416046 232.458572,238.992874 
	C234.244217,246.530899 235.250320,254.253616 236.771072,262.790192 
	C234.061920,262.790192 232.313614,262.699158 230.578506,262.811737 
	C228.031372,262.976959 225.494080,263.476685 222.951889,263.481873 
	C220.543961,263.486786 217.940277,263.468567 215.847641,262.521515 
	C215.234894,262.244232 215.510040,258.478638 216.347534,256.793640 
	C219.568726,250.312714 217.712234,244.321259 214.701920,238.670929 
	C211.032547,231.783554 206.030518,225.543274 202.879471,218.456375 
	C197.157150,205.586578 192.779602,192.118698 187.053406,179.250824 
	C183.561676,171.404251 183.761963,164.400177 187.408127,156.854736 
	C192.389603,146.546021 189.514847,136.397461 185.904434,126.392876 
	C184.860001,123.498718 183.999039,121.055855 187.423538,118.605362 
	C195.251297,113.004013 196.352509,113.197731 199.359390,122.365341 
	C202.618378,132.301590 205.919266,142.224121 209.212097,152.149246 
	C210.631943,156.428879 213.922867,157.393051 216.426437,153.664581 
	C218.037888,151.264709 218.735413,147.452927 218.223251,144.560745 
	C215.737823,130.525894 212.797363,116.568100 209.794662,102.631157 
	C209.131760,99.554367 209.932892,97.771957 212.306396,95.844971 
	C222.011261,87.965805 233.069366,84.362419 245.461197,85.086014 
	C247.053207,85.178970 248.957703,86.757545 249.979187,88.178596 
	C251.506012,90.302628 252.377380,92.897804 253.663971,95.671623 
z"/>
<path fill="#FEFEFF" opacity="1.000000" stroke="none" 
	d="
M197.320129,260.352753 
	C192.293259,262.708923 187.547241,264.865875 182.710052,266.794067 
	C182.174194,267.007690 180.889893,266.095825 180.339767,265.399902 
	C176.636795,260.715729 172.772430,256.126587 169.461502,251.171768 
	C162.550629,240.829605 155.215851,230.696136 151.963348,218.338867 
	C151.516724,216.641968 149.287537,215.414261 147.883636,213.969330 
	C146.587677,215.487854 144.509476,216.830750 144.122711,218.553391 
	C141.620621,229.697830 139.489090,240.925415 137.231125,252.124741 
	C136.935928,253.588913 136.624786,255.050125 136.300217,256.508087 
	C133.594223,268.663452 133.560974,269.009979 121.115852,267.870239 
	C114.877357,267.298889 108.009636,268.504730 102.236732,263.618896 
	C103.504547,263.164368 104.453972,262.823975 107.062286,261.888855 
	C93.696175,259.592712 99.462128,251.434418 99.890450,245.013763 
	C101.222549,225.044861 107.524292,206.311447 114.517410,187.807388 
	C121.307083,169.841644 132.277328,154.380920 144.715576,139.959381 
	C149.687958,134.194138 155.004257,128.640625 160.727890,123.635574 
	C165.145599,119.772514 168.634186,120.380981 172.030945,125.288208 
	C175.036850,129.630783 177.437286,134.471878 179.488129,139.352142 
	C180.185394,141.011398 179.208481,143.517731 178.644730,145.538849 
	C176.015900,154.963654 172.737076,164.246796 170.790222,173.804565 
	C169.889038,178.228836 170.314240,183.715805 172.197769,187.762222 
	C177.300934,198.725311 183.759659,209.047958 189.200226,219.866272 
	C194.192673,229.793579 198.645081,239.998322 203.081009,250.191544 
	C203.583160,251.345383 202.768784,253.418747 201.979553,254.707153 
	C200.780212,256.665070 199.068405,258.309113 197.320129,260.352753 
z"/>
<path fill="#FDFEFF" opacity="1.000000" stroke="none" 
	d="
M444.416412,231.799484 
	C446.496582,231.160080 448.160645,230.568954 451.257202,229.468948 
	C448.609711,227.384354 447.066132,225.791489 445.207733,224.773087 
	C438.352875,221.016632 431.289551,217.630249 424.531586,213.713089 
	C422.222717,212.374771 419.675293,210.222626 418.792480,207.860840 
	C414.900696,197.449005 411.547455,186.834473 408.092590,176.262833 
	C407.751495,175.219147 408.046936,173.967453 408.046936,171.736481 
	C410.882904,172.375656 413.608307,172.605362 416.018951,173.598785 
	C427.395477,178.287109 438.679810,183.198700 450.009613,188.000916 
	C455.093048,190.155594 456.487854,188.884521 456.243958,183.439819 
	C455.933929,176.519623 451.296936,173.189133 446.142212,170.282974 
	C440.229095,166.949280 434.136292,163.934372 427.899597,160.664597 
	C432.113983,149.639969 439.567627,139.807663 434.298920,127.252068 
	C434.885834,127.069450 435.472748,126.886826 436.059662,126.704208 
	C441.416748,131.285446 447.570984,135.211136 451.979797,140.572220 
	C464.637451,155.963959 474.566895,173.072708 480.809113,192.123810 
	C482.507233,197.306427 483.938324,202.673691 477.155640,205.306534 
	C477.447296,206.215683 477.468048,206.727966 477.654602,206.797867 
	C490.446167,211.591736 491.278809,222.783951 491.940399,233.884232 
	C492.271576,239.440018 492.882721,245.281464 491.595367,250.561722 
	C489.576324,258.843079 481.606323,261.163239 474.601044,262.636536 
	C461.913422,265.304810 448.952148,266.113861 435.979523,264.055054 
	C428.583557,262.881287 427.766571,261.614624 427.791901,254.293396 
	C427.804779,250.552734 427.031464,246.640610 425.769684,243.107361 
	C424.222412,238.774780 425.689728,236.013794 429.473114,234.846848 
	C434.176422,233.396133 439.145813,232.808273 444.416412,231.799484 
z"/>
<path fill="#FFFFFF" opacity="1.000000" stroke="none" 
	d="
M178.956360,362.944763 
	C179.374023,362.742249 179.867386,362.627899 180.360764,362.513580 
	C180.124237,362.710876 179.887726,362.908203 179.417938,363.156891 
	C179.184647,363.208282 179.032089,363.032928 178.956360,362.944763 
z"/>
</svg>